<svg width="40" height="40" viewBox="0 0 40 40" fill="none" xmlns="http://www.w3.org/2000/svg">
<circle cx="20" cy="20" r="20" fill="url(#paint0_linear)"/>
<path fill-rule="evenodd" clip-rule="evenodd" d="M11 10C9.895 10 9 10.895 9 12V24C9 25.105 9.895 26 11 26H18C18 26.868 17.4488 27.6058 16.6758 27.8828C16.2588 28.0328 16 28.4525 16 28.8965C16 29.5055 16.4945 30 17.1035 30H22.8965C23.5065 30 24 29.5055 24 28.8965C24 28.4535 23.7412 28.0328 23.3242 27.8828C22.5512 27.6058 22 26.868 22 26H29C30.105 26 31 25.105 31 24V12C31 10.895 30.105 10 29 10H11ZM11 12H29V22H11V12ZM21 24C21 23.448 20.552 23 20 23C19.448 23 19 23.448 19 24C19 24.552 19.448 25 20 25C20.552 25 21 24.552 21 24Z" fill="white"/>
<defs>
<linearGradient id="paint0_linear" x1="0" y1="0" x2="0" y2="40" gradientUnits="userSpaceOnUse">
<stop stop-color="#C4C1FF"/>
<stop offset="1" stop-color="#95A9FF"/>
</linearGradient>
</defs>
</svg>
