<svg width="40" height="40" viewBox="0 0 40 40" fill="none" xmlns="http://www.w3.org/2000/svg">
<circle cx="20" cy="20" r="20" fill="url(#paint0_linear)"/>
<path fill-rule="evenodd" clip-rule="evenodd" d="M31 25.5V14.5C31 13.12 29.88 12 28.5 12H11.5C10.12 12 9 13.12 9 14.5V25.5C9 26.88 10.12 28 11.5 28H28.5C29.88 28 31 26.88 31 25.5ZM18.875 26C18.875 25.378 19.378 24.875 20 24.875C20.622 24.875 21.125 25.378 21.125 26C21.125 26.622 20.622 27.125 20 27.125C19.378 27.125 18.875 26.622 18.875 26ZM11 14.5V23.5C11 23.776 11.224 24 11.5 24H28.5C28.776 24 29 23.776 29 23.5V14.5C29 14.224 28.776 14 28.5 14H11.5C11.224 14 11 14.224 11 14.5Z" fill="white"/>
<defs>
<linearGradient id="paint0_linear" x1="0" y1="0" x2="0" y2="40" gradientUnits="userSpaceOnUse">
<stop stop-color="#9CF4CA"/>
<stop offset="1" stop-color="#63E69A"/>
</linearGradient>
</defs>
</svg>
