<svg width="21" height="19" viewBox="0 0 21 19" fill="none" xmlns="http://www.w3.org/2000/svg">
<path fill-rule="evenodd" clip-rule="evenodd" d="M9.45 0V2.11111H6.3L10.5 6.33333L14.7 2.11111H11.55V0H9.45ZM2.1 2.11111C0.93975 2.11111 0 3.05583 0 4.22222V16.8889C0 18.0553 0.93975 19 2.1 19H18.9C20.0602 19 21 18.0553 21 16.8889V4.22222C21 3.05583 20.0602 2.11111 18.9 2.11111H17.6695L16.1848 3.60373L15.5695 4.22222H18.9V6.33539L10.5 11.6111L2.1 6.33539V4.22222H5.43047L4.81523 3.60373L3.33047 2.11111H2.1ZM18.9 16.8889V8.44651L10.5 13.7222L2.1 8.44651V16.8889H18.9Z" fill="white"/>
</svg>
