<svg width="22" height="19" viewBox="0 0 22 19" fill="none" xmlns="http://www.w3.org/2000/svg">
<path fill-rule="evenodd" clip-rule="evenodd" d="M11 0C7.02999 0.021 3.13162 1.59689 0.265615 4.46289C-0.158385 4.88689 -0.0103848 5.44956 0.265615 5.72656L2.48241 7.94141C2.65741 8.11641 2.88522 8.20508 3.11522 8.20508C3.33622 8.20508 3.55941 8.12203 3.73241 7.95703C4.14041 7.56903 4.66315 7.09203 5.03515 6.83203C5.43715 6.55003 5.96765 6.25664 6.34765 6.05664C6.64565 5.89964 6.82807 5.59091 6.83007 5.25391L6.83983 2.46094C8.30183 2.00694 9.65793 1.82422 10.9609 1.82422H11H11.0391C12.3431 1.82422 13.6981 2.00694 15.1601 2.46094L15.1699 5.25391C15.1709 5.59091 15.3543 5.89964 15.6523 6.05664C16.0313 6.25664 16.5618 6.54808 16.9648 6.83008C17.3368 7.09008 17.8606 7.56903 18.2676 7.95703C18.4406 8.12203 18.6638 8.20312 18.8848 8.20312C19.1138 8.20312 19.3426 8.11641 19.5176 7.94141L21.7344 5.72461C22.0114 5.44861 22.1594 4.88689 21.7344 4.46289C18.8684 1.59689 14.97 0.021 11 0ZM4.83593 3.55469L4.83202 4.60547C4.46602 4.81347 4.14971 5.00936 3.88671 5.19336C3.67471 5.34136 3.43043 5.53725 3.14843 5.78125L2.49608 5.12891C3.21708 4.52191 4.00393 3.99469 4.83593 3.55469ZM19.5039 5.12891C18.7829 4.52191 17.9961 3.99564 17.1641 3.55664L17.168 4.60547C17.534 4.81347 17.8513 5.00936 18.1133 5.19336C18.3253 5.34136 18.5696 5.53725 18.8516 5.78125L19.5039 5.12891ZM7.99999 5V7L3.75194 10.3984C3.27694 10.7774 2.99999 11.3529 2.99999 11.9609V17H1.99999V19H20V17H19V11.9609C19 11.3529 18.723 10.7784 18.248 10.3984L14 7V5H12V7H9.99999V5H7.99999ZM17 11.9609L13.2988 9H8.70116L4.99999 11.9609V17H17V11.9609ZM7.99999 11C7.44771 11 6.99999 11.4477 6.99999 12C6.99999 12.5523 7.44771 13 7.99999 13C8.55228 13 8.99999 12.5523 8.99999 12C8.99999 11.4477 8.55228 11 7.99999 11ZM9.99999 12C9.99999 11.4477 10.4477 11 11 11C11.5523 11 12 11.4477 12 12C12 12.5523 11.5523 13 11 13C10.4477 13 9.99999 12.5523 9.99999 12ZM14 11C13.4477 11 13 11.4477 13 12C13 12.5523 13.4477 13 14 13C14.5523 13 15 12.5523 15 12C15 11.4477 14.5523 11 14 11ZM6.99999 15C6.99999 14.4477 7.44771 14 7.99999 14C8.55228 14 8.99999 14.4477 8.99999 15C8.99999 15.5523 8.55228 16 7.99999 16C7.44771 16 6.99999 15.5523 6.99999 15ZM11 14C10.4477 14 9.99999 14.4477 9.99999 15C9.99999 15.5523 10.4477 16 11 16C11.5523 16 12 15.5523 12 15C12 14.4477 11.5523 14 11 14ZM13 15C13 14.4477 13.4477 14 14 14C14.5523 14 15 14.4477 15 15C15 15.5523 14.5523 16 14 16C13.4477 16 13 15.5523 13 15Z" fill="white"/>
</svg>
