<svg xmlns="http://www.w3.org/2000/svg" width="40" height="40" viewBox="0 0 40 40"><defs><linearGradient id="68pna" x1="20" x2="20" y1="0" y2="40" gradientUnits="userSpaceOnUse"><stop offset="0" stop-color="#c4c1ff"/><stop offset="1" stop-color="#95a9ff"/></linearGradient></defs><g><g><g><path fill="url(#68pna)" d="M20 40c11.046 0 20-8.954 20-20S31.046 0 20 0 0 8.954 0 20s8.954 20 20 20z"/></g><g><g><path fill="#fff" d="M13.628 24.193l2.49-3.202a.5.5 0 0 1 .779-.012L19 23.51l3.098-3.992a.5.5 0 0 1 .795.007L26.4 24.2a.5.5 0 0 1-.4.8H14.022a.5.5 0 0 1-.394-.807zM28 12H12a2 2 0 0 0-2 2v12a2 2 0 0 0 2 2h16a2 2 0 0 0 2-2V14a2 2 0 0 0-2-2z"/></g></g></g></g></svg>