<svg xmlns="http://www.w3.org/2000/svg" width="40" height="40" viewBox="0 0 40 40"><defs><linearGradient id="git2a" x1="20" x2="20" y1="0" y2="40" gradientUnits="userSpaceOnUse"><stop offset="0" stop-color="#feb7a0"/><stop offset="1" stop-color="#fac960"/></linearGradient></defs><g><g><g><path fill="url(#git2a)" d="M20 40c11.046 0 20-8.954 20-20S31.046 0 20 0 0 8.954 0 20s8.954 20 20 20z"/></g><g><g><path fill="#fff" d="M12 12v2a1 1 0 0 0 2 0v-1h5v14h-1a1 1 0 0 0 0 2h4a1 1 0 0 0 0-2h-1V13h5v1a1 1 0 0 0 2 0v-2a1 1 0 0 0-1-1H13a1 1 0 0 0-1 1z"/></g></g></g></g></svg>