<svg xmlns="http://www.w3.org/2000/svg" width="40" height="40" viewBox="0 0 40 40"><defs><linearGradient id="e8p3a" x1="20" x2="20" y1="0" y2="40" gradientUnits="userSpaceOnUse"><stop offset="0" stop-color="#a3e9ff"/><stop offset="1" stop-color="#4196f2"/></linearGradient></defs><g><g><g><path fill="url(#e8p3a)" d="M20 40c11.046 0 20-8.954 20-20S31.046 0 20 0 0 8.954 0 20s8.954 20 20 20z"/></g><g><g><path fill="#fff" d="M19 19h2v2h-2zm-1.019-4.014A1 1 0 0 0 16.998 16v.999h-.999a1 1 0 1 0 0 1.998h.999v1.998h-.999a1 1 0 1 0 0 1.998h.999v.999a1 1 0 1 0 1.998 0v-.999h1.998v.999a1 1 0 1 0 1.998 0v-.999h.999a1 1 0 1 0 0-1.998h-.999v-1.998h.999a1 1 0 1 0 0-1.998h-.999v-.999a1 1 0 1 0-1.998 0v.999h-1.998v-.999a1 1 0 0 0-1.015-1.013zM14 13h12c.565 0 1 .435 1 1v12c0 .565-.435 1-1 1H14c-.565 0-1-.435-1-1V14c0-.565.435-1 1-1zm0-2c-1.645 0-3 1.355-3 3v12c0 1.645 1.355 3 3 3h12c1.645 0 3-1.355 3-3V14c0-1.645-1.355-3-3-3z"/></g></g></g></g></svg>