<?xml version="1.0" encoding="UTF-8"?>
<svg id="SVGDoc" width="40" height="40" xmlns="http://www.w3.org/2000/svg" version="1.1" xmlns:xlink="http://www.w3.org/1999/xlink" xmlns:avocode="https://avocode.com/" viewBox="0 0 40 40"><defs><linearGradient id="LinearGradient1025" gradientUnits="userSpaceOnUse" x1="20" y1="0" x2="20" y2="40"><stop stop-opacity="1" stop-color="#c4c1ff" offset="0"></stop><stop stop-opacity="1" stop-color="#95a9ff" offset="1"></stop></linearGradient></defs><desc>Generated with Avocode.</desc><g><g><title>Group 6 Copy 2</title><g><title>Oval</title><path d="M20,40c11.04569,0 20,-8.95431 20,-20c0,-11.04569 -8.95431,-20 -20,-20c-11.04569,0 -20,8.95431 -20,20c0,11.04569 8.95431,20 20,20z" fill="url(#LinearGradient1025)"></path></g><g><title>icons8-fire</title><g><title>Shape</title><path d="M19.645,28.2175c-1.563,-0.18 -2.719,-1.647 -2.638,-3.218c0.099,-1.919 1.362,-3.805 2.216,-4.873c0.398,-0.497 1.155,-0.502 1.552,-0.005c0.888,1.111 2.225,3.113 2.225,5.116c0,1.774 -1.54,3.188 -3.355,2.98zM21.42,10.5955c-0.784,-0.794 -2.055,-0.794 -2.839,0c-2.299,2.328 -6.581,7.253 -6.581,11.642c0,4.418 3.582,8 8,8c4.418,0 8,-3.582 8,-8c0,-4.389 -4.282,-9.314 -6.58,-11.642z" fill="#ffffff" fill-opacity="1"></path></g></g></g></g></svg>