<?xml version="1.0" encoding="UTF-8"?>
<svg id="SVGDoc" width="40" height="40" xmlns="http://www.w3.org/2000/svg" version="1.1" xmlns:xlink="http://www.w3.org/1999/xlink" xmlns:avocode="https://avocode.com/" viewBox="0 0 40 40"><defs><linearGradient id="LinearGradient1067" gradientUnits="userSpaceOnUse" x1="20" y1="0" x2="20" y2="40"><stop stop-opacity="1" stop-color="#feb7a0" offset="0"></stop><stop stop-opacity="1" stop-color="#fac960" offset="1"></stop></linearGradient></defs><desc>Generated with Avocode.</desc><g><g><title>Group 6 Copy 2</title><g><title>Oval</title><path d="M20,40c11.04569,0 20,-8.95431 20,-20c0,-11.04569 -8.95431,-20 -20,-20c-11.04569,0 -20,8.95431 -20,20c0,11.04569 8.95431,20 20,20z" fill="url(#LinearGradient1067)"></path></g><g><title>icons8-people</title><g><title>Shape</title><path d="M32,24.70507v2.29493c0,0.552 -0.448,1 -1,1h-2v-3.5c0,-0.961 -0.34544,-1.76727 -0.89844,-2.44727c1.581,0.244 3.89844,1.33634 3.89844,2.65234zM11,24.5v3.5h-2c-0.552,0 -1,-0.448 -1,-1v-2.29493c0,-1.316 2.31744,-2.40834 3.89844,-2.65234c-0.553,0.68 -0.89844,1.48627 -0.89844,2.44727zM27,24.5v2.5c0,0.552 -0.448,1 -1,1h-12c-0.552,0 -1,-0.448 -1,-1v-2.5c0,-2.327 4.664,-3.5 7,-3.5c2.336,0 7,1.173 7,3.5zM30,17.5c0,0.66304 -0.26339,1.29893 -0.73223,1.76777c-0.46884,0.46884 -1.10473,0.73223 -1.76777,0.73223c-1.38071,0 -2.5,-1.11929 -2.5,-2.5c0,-1.38071 1.11929,-2.5 2.5,-2.5c1.38071,0 2.5,1.11929 2.5,2.5zM14.26777,15.73223c0.46884,0.46884 0.73223,1.10473 0.73223,1.76777c0,0.66304 -0.26339,1.29893 -0.73223,1.76777c-0.46884,0.46884 -1.10473,0.73223 -1.76777,0.73223c-1.38071,0 -2.5,-1.11929 -2.5,-2.5c0,-1.38071 1.11929,-2.5 2.5,-2.5c0.66304,0 1.29893,0.26339 1.76777,0.73223zM23.5,15.5c0,1.933 -1.567,3.5 -3.5,3.5c-1.933,0 -3.5,-1.567 -3.5,-3.5c0,-1.933 1.567,-3.5 3.5,-3.5c1.933,0 3.5,1.567 3.5,3.5z" fill="#ffffff" fill-opacity="1"></path></g></g></g></g></svg>