<svg width="40" height="40" viewBox="0 0 40 40" fill="none" xmlns="http://www.w3.org/2000/svg">
<circle cx="20" cy="20" r="20" fill="url(#paint0_linear)"/>
<path fill-rule="evenodd" clip-rule="evenodd" d="M11 14C11 12.355 12.355 11 14 11H26C27.645 11 29 12.355 29 14V26C29 27.645 27.645 29 26 29H14C12.355 29 11 27.645 11 26V14ZM26 13H14C13.435 13 13 13.435 13 14V26C13 26.565 13.435 27 14 27H26C26.565 27 27 26.565 27 26V14C27 13.435 26.565 13 26 13ZM17.9844 14.9863C17.4329 14.9949 16.9924 15.4485 17 16V17H16C15.6394 16.9949 15.3039 17.1844 15.1221 17.4959C14.9403 17.8074 14.9403 18.1926 15.1221 18.5041C15.3039 18.8156 15.6394 19.0051 16 19H17V21H16C15.6394 20.9949 15.3039 21.1844 15.1221 21.4959C14.9403 21.8074 14.9403 22.1926 15.1221 22.5041C15.3039 22.8156 15.6394 23.0051 16 23H17V24C16.9949 24.3606 17.1844 24.6961 17.4959 24.8779C17.8074 25.0597 18.1926 25.0597 18.5041 24.8779C18.8156 24.6961 19.0051 24.3606 19 24V23H21V24C20.9949 24.3606 21.1844 24.6961 21.4959 24.8779C21.8074 25.0597 22.1926 25.0597 22.5041 24.8779C22.8156 24.6961 23.0051 24.3606 23 24V23H24C24.3606 23.0051 24.6961 22.8156 24.8779 22.5041C25.0597 22.1926 25.0597 21.8074 24.8779 21.4959C24.6961 21.1844 24.3606 20.9949 24 21H23V19H24C24.3606 19.0051 24.6961 18.8156 24.8779 18.5041C25.0597 18.1926 25.0597 17.8074 24.8779 17.4959C24.6961 17.1844 24.3606 16.9949 24 17H23V16C23.0037 15.7297 22.8978 15.4694 22.7065 15.2784C22.5152 15.0875 22.2547 14.9821 21.9844 14.9863C21.4329 14.9949 20.9924 15.4485 21 16V17H19V16C19.0037 15.7297 18.8978 15.4694 18.7065 15.2784C18.5152 15.0875 18.2547 14.9821 17.9844 14.9863ZM21 19H19V21H21V19Z" fill="white"/>
<defs>
<linearGradient id="paint0_linear" x1="0" y1="0" x2="0" y2="40" gradientUnits="userSpaceOnUse">
<stop stop-color="#9CF4CA"/>
<stop offset="1" stop-color="#63E69A"/>
</linearGradient>
</defs>
</svg>
