<svg width="40" height="40" viewBox="0 0 40 40" fill="none" xmlns="http://www.w3.org/2000/svg">
<circle cx="20" cy="20" r="20" fill="url(#paint0_linear)"/>
<path fill-rule="evenodd" clip-rule="evenodd" d="M13 17C13 13.134 16.134 10 20 10C23.866 10 27 13.134 27 17C27 20.966 22.596 26.82 20.774 29.071C20.374 29.565 19.626 29.565 19.226 29.071C17.404 26.82 13 20.966 13 17ZM17.5 17C17.5 18.381 18.619 19.5 20 19.5C21.381 19.5 22.5 18.381 22.5 17C22.5 15.619 21.381 14.5 20 14.5C18.619 14.5 17.5 15.619 17.5 17Z" fill="white"/>
<defs>
<linearGradient id="paint0_linear" x1="0" y1="0" x2="0" y2="40" gradientUnits="userSpaceOnUse">
<stop stop-color="#C4C1FF"/>
<stop offset="1" stop-color="#95A9FF"/>
</linearGradient>
</defs>
</svg>
