<svg xmlns="http://www.w3.org/2000/svg" width="40" height="40" viewBox="0 0 40 40"><defs><linearGradient id="8x8ea" x1="20" x2="20" y1="0" y2="40" gradientUnits="userSpaceOnUse"><stop offset="0" stop-color="#9cf4ca"/><stop offset="1" stop-color="#63e69a"/></linearGradient></defs><g><g><g><path fill="url(#8x8ea)" d="M20 40c11.046 0 20-8.954 20-20S31.046 0 20 0 0 8.954 0 20s8.954 20 20 20z"/></g><g><g><path fill="#fff" d="M24.629 19.004a.426.426 0 0 0-.21.021l-2.78 1a.999.999 0 0 0-.639.932V21c0 .516.51.876.996.705L23 21.354V26a1 1 0 0 0 2 0v-6.564a.436.436 0 0 0-.371-.432zM16 19a1 1 0 1 0 0 2h.918l-.7.875a1 1 0 0 0 .66 1.617s.328.05.634.22c.305.172.488.289.488.788 0 .287-.213.5-.5.5a.496.496 0 0 1-.473-.334 1 1 0 1 0-1.884.668A2.506 2.506 0 0 0 17.5 27a1 1 0 0 0 .686-.285C19.187 26.388 20 25.603 20 24.5c0-1.18-.724-1.994-1.387-2.416l1.168-1.459A1 1 0 0 0 19 19zm-3-2h14v11H13zm2-7a1 1 0 0 0-1 1v1h-1c-1.1 0-2 .9-2 2v14c0 1.1.9 2 2 2h14c1.1 0 2-.9 2-2V14c0-1.1-.9-2-2-2h-1v-1a1 1 0 0 0-2 0v1h-8v-1a1 1 0 0 0-1-1z"/></g></g></g></g></svg>