<?xml version="1.0" encoding="UTF-8"?>
<svg id="SVGDoc" width="40" height="40" xmlns="http://www.w3.org/2000/svg" version="1.1" xmlns:xlink="http://www.w3.org/1999/xlink" xmlns:avocode="https://avocode.com/" viewBox="0 0 40 40"><defs><linearGradient id="LinearGradient1046" gradientUnits="userSpaceOnUse" x1="20" y1="0" x2="20" y2="40"><stop stop-opacity="1" stop-color="#9cf4ca" offset="0"></stop><stop stop-opacity="1" stop-color="#63e69a" offset="1"></stop></linearGradient></defs><desc>Generated with Avocode.</desc><g><g><title>Group 6 Copy 2</title><g><title>Oval</title><path d="M20,40c11.04569,0 20,-8.95431 20,-20c0,-11.04569 -8.95431,-20 -20,-20c-11.04569,0 -20,8.95431 -20,20c0,11.04569 8.95431,20 20,20z" fill="url(#LinearGradient1046)"></path></g><g><title>icons8-increase</title><g><title>Shape</title><path d="M11.00998,27.90415v1c-0.0051,0.36064 0.18438,0.69609 0.49587,0.87789c0.3115,0.18181 0.69676,0.18181 1.00826,0c0.3115,-0.1818 0.50097,-0.51725 0.49587,-0.87789v-1c0.0037,-0.2703 -0.10218,-0.53058 -0.29351,-0.72155c-0.19133,-0.19096 -0.45182,-0.29634 -0.72211,-0.29212c-0.55152,0.00862 -0.99193,0.46214 -0.98438,1.01367zM15.99436,24.89048c-0.55152,0.00862 -0.99193,0.46214 -0.98438,1.01367v3c-0.0051,0.36064 0.18438,0.69609 0.49587,0.87789c0.3115,0.18181 0.69676,0.18181 1.00826,0c0.3115,-0.1818 0.50097,-0.51725 0.49587,-0.87789v-3c0.0037,-0.2703 -0.10218,-0.53058 -0.29351,-0.72155c-0.19133,-0.19096 -0.45182,-0.29634 -0.72211,-0.29212zM19.99436,22.89048c-0.55152,0.00862 -0.99193,0.46214 -0.98438,1.01367v5c-0.0051,0.36064 0.18438,0.69609 0.49587,0.87789c0.3115,0.18181 0.69676,0.18181 1.00826,0c0.3115,-0.1818 0.50097,-0.51725 0.49587,-0.87789v-5c0.0037,-0.2703 -0.10218,-0.53058 -0.29351,-0.72155c-0.19133,-0.19096 -0.45182,-0.29634 -0.72211,-0.29212zM23.99436,20.89048c-0.55152,0.00862 -0.99193,0.46214 -0.98438,1.01367v7c-0.0051,0.36064 0.18438,0.69609 0.49587,0.87789c0.3115,0.18181 0.69676,0.18181 1.00826,0c0.3115,-0.1818 0.50097,-0.51725 0.49587,-0.87789v-7c0.0037,-0.2703 -0.10218,-0.53058 -0.29351,-0.72155c-0.19133,-0.19096 -0.45182,-0.29634 -0.72211,-0.29212zM27.99436,18.89048c-0.55152,0.00862 -0.99193,0.46214 -0.98438,1.01367v9c-0.0051,0.36064 0.18438,0.69609 0.49587,0.87789c0.3115,0.18181 0.69676,0.18181 1.00826,0c0.3115,-0.1818 0.50097,-0.51725 0.49587,-0.87789v-9c0.0037,-0.2703 -0.10218,-0.53058 -0.29351,-0.72155c-0.19133,-0.19096 -0.45182,-0.29634 -0.72211,-0.29212zM29.34005,11.00572l-3.65039,0.55078c-0.406,0.061 -0.56929,0.55765 -0.27929,0.84765l0.84179,0.84375l-3.06445,3.06446l-0.89453,-0.83789c-0.39712,-0.37152 -1.01832,-0.35764 -1.39844,0.03125l-3.39258,3.47656l-0.78515,-0.78516c-0.38748,-0.38736 -1.0145,-0.39084 -1.40625,-0.00781l-3.99805,3.91797c-0.26262,0.24852 -0.37065,0.61944 -0.28254,0.97011c0.08811,0.35067 0.35864,0.62648 0.70754,0.72135c0.3489,0.09487 0.72184,-0.00596 0.97539,-0.26373l3.28906,-3.22461l0.80078,0.80078c0.1889,0.18884 0.44548,0.29428 0.71257,0.29281c0.26709,-0.00147 0.5225,-0.10972 0.70931,-0.30062l3.41601,-3.5l0.88477,0.83008c0.39347,0.36908 1.00875,0.35957 1.39063,-0.02148l3.75,-3.75l0.84375,0.84179c0.29,0.29 0.78665,0.12671 0.84765,-0.27929l0.55078,-3.65039c0.05,-0.333 -0.23536,-0.61836 -0.56836,-0.56836z" fill="#ffffff" fill-opacity="1"></path></g></g></g></g></svg>