<svg xmlns="http://www.w3.org/2000/svg" width="40" height="40" viewBox="0 0 40 40"><defs><linearGradient id="5h0va" x1="20" x2="20" y1="0" y2="40" gradientUnits="userSpaceOnUse"><stop offset="0" stop-color="#ffa3c0"/><stop offset="1" stop-color="#f24167"/></linearGradient></defs><g><g><g><path fill="url(#5h0va)" d="M20 40c11.046 0 20-8.954 20-20S31.046 0 20 0 0 8.954 0 20s8.954 20 20 20z"/></g><g><g><path fill="#fff" d="M12 16c-1.1 0-2 .9-2 2v4c0 1.1.9 2 2 2h2v4a1 1 0 0 0 2 0V17a1 1 0 0 0-1-1zm14.764-5c-.468 0-.896.266-1.106.684L25 13l-6.395 2.74a.998.998 0 0 0-.605.918v6.682a1 1 0 0 0 .605.92L25 27l.658 1.316A1.236 1.236 0 0 0 28 27.763V21.73A2 2 0 0 0 29 20a2 2 0 0 0-1-1.73v-6.034c0-.683-.553-1.236-1.236-1.236z"/></g></g></g></g></svg>