<svg width="40" height="40" viewBox="0 0 40 40" fill="none" xmlns="http://www.w3.org/2000/svg">
<circle cx="20" cy="20" r="20" fill="url(#paint0_linear)"/>
<path d="M24.2558 12.0043C21.5148 12.1163 19.9998 14.0893 19.9998 14.0893C19.9998 14.0893 18.4848 12.1163 15.7438 12.0043C13.9058 11.9293 12.2208 12.8443 11.1108 14.3113C7.24883 19.4153 14.5608 25.3863 16.2808 26.9893C17.3098 27.9483 18.5798 29.0873 19.3378 29.7623C19.7168 30.1003 20.2818 30.1003 20.6608 29.7623C21.4188 29.0873 22.6888 27.9483 23.7178 26.9893C25.4378 25.3863 32.7508 19.4153 28.8878 14.3113C27.7788 12.8443 26.0938 11.9293 24.2558 12.0043Z" fill="white"/>
<defs>
<linearGradient id="paint0_linear" x1="0" y1="0" x2="0" y2="40" gradientUnits="userSpaceOnUse">
<stop stop-color="#FEB7A0"/>
<stop offset="1" stop-color="#FAC960"/>
</linearGradient>
</defs>
</svg>
