<svg xmlns="http://www.w3.org/2000/svg" width="74" height="74" viewBox="0 0 74 74"><defs><linearGradient id="5hyga" x1="37" x2="37" y1="0" y2="74" gradientUnits="userSpaceOnUse"><stop offset="0" stop-color="#a3e9ff"/><stop offset="1" stop-color="#4196f2"/></linearGradient></defs><g><g><g><path fill="url(#5hyga)" d="M37 74c20.435 0 37-16.565 37-37S57.435 0 37 0 0 16.565 0 37s16.565 37 37 37z"/></g><g><g><path fill="#fff" d="M23.475 31.237A2.474 2.474 0 0 0 21 33.707V48.53A2.474 2.474 0 0 0 23.475 51a2.474 2.474 0 0 0 2.475-2.47V33.707a2.474 2.474 0 0 0-2.475-2.47zm13.493-11.23a1.682 1.682 0 0 0-1.482 1.303l-.915 4.027-4.473 4.96a3.286 3.286 0 0 0-.848 2.204v15.205A3.296 3.296 0 0 0 32.55 51h13.252c1.222 0 2.33-.719 2.826-1.834L53.58 38.04A4.799 4.799 0 0 0 54 36.08v-1.55a3.307 3.307 0 0 0-3.3-3.293H39.15s1.65-3.905 1.65-6.813c0-2.657-1.712-3.82-3.123-4.327a1.638 1.638 0 0 0-.709-.09z"/></g></g></g></g></svg>