<svg xmlns="http://www.w3.org/2000/svg" width="74" height="74" viewBox="0 0 74 74"><defs><linearGradient id="sz7ta" x1="37" x2="37" y1="0" y2="74" gradientUnits="userSpaceOnUse"><stop offset="0" stop-color="#ffa3c0"/><stop offset="1" stop-color="#f24167"/></linearGradient></defs><g><g><g><path fill="url(#sz7ta)" d="M37 74c20.435 0 37-16.565 37-37S57.435 0 37 0 0 16.565 0 37s16.565 37 37 37z"/></g><g><g><path fill="#fff" d="M53 43.47v3.155c0 .759-.616 1.375-1.375 1.375h-2.75v-4.813c0-1.32-.475-2.43-1.235-3.364 2.174.335 5.36 1.837 5.36 3.646zm-28.875-.282V48h-2.75A1.376 1.376 0 0 1 20 46.625v-3.156c0-1.809 3.186-3.311 5.36-3.646-.76.935-1.235 2.043-1.235 3.364zm22-.005v3.433c0 .759-.616 1.374-1.375 1.374h-16.5a1.375 1.375 0 0 1-1.375-1.374v-3.433c0-3.197 6.413-4.808 9.625-4.808 3.212 0 9.625 1.611 9.625 4.808zm4.115-9.625a3.432 3.432 0 1 1-6.865 0 3.432 3.432 0 0 1 6.865 0zM28.618 31.13a3.43 3.43 0 0 1-2.43 5.86 3.435 3.435 0 0 1-3.438-3.432 3.44 3.44 0 1 1 5.868-2.427zm12.685-.317a4.81 4.81 0 0 1-4.808 4.812 4.81 4.81 0 0 1-4.807-4.813A4.81 4.81 0 0 1 36.495 26a4.81 4.81 0 0 1 4.808 4.813z"/></g></g></g></g></svg>