<svg xmlns="http://www.w3.org/2000/svg" width="74" height="74" viewBox="0 0 74 74"><defs><linearGradient id="ej6wa" x1="37" x2="37" y1="0" y2="74" gradientUnits="userSpaceOnUse"><stop offset="0" stop-color="#feb7a0"/><stop offset="1" stop-color="#fac960"/></linearGradient></defs><g><g><g><path fill="url(#ej6wa)" d="M37 74c20.435 0 37-16.565 37-37S57.435 0 37 0 0 16.565 0 37s16.565 37 37 37z"/></g><g><g><path fill="#fff" d="M44.65 25C39.729 25 37 28.53 37 28.53S34.272 25 29.35 25C24.185 25 20 29.157 20 34.288c0 7.91 12.335 17.661 15.99 20.376a1.684 1.684 0 0 0 2.018 0C41.665 51.95 54 42.2 54 34.288 54 29.158 49.815 25 44.65 25z"/></g></g></g></g></svg>