<svg xmlns="http://www.w3.org/2000/svg" width="74" height="74" viewBox="0 0 74 74"><defs><linearGradient id="7dcua" x1="37" x2="37" y1="0" y2="74" gradientUnits="userSpaceOnUse"><stop offset="0" stop-color="#9cf4ca"/><stop offset="1" stop-color="#63e69a"/></linearGradient></defs><g><g><g><path fill="url(#7dcua)" d="M37 74c20.435 0 37-16.565 37-37S57.435 0 37 0 0 16.565 0 37s16.565 37 37 37z"/></g><g><g><path fill="#fff" d="M52.198 49.056l-3.142 3.142 1.15 1.151a2.223 2.223 0 0 0 3.143-3.142zm-12.34-9.199V43l8.087 8.087 3.142-3.142L43 39.857zM27.285 32H32a1.572 1.572 0 0 1 0 3.143h-4.714a1.572 1.572 0 0 1 0-3.143zm0-6.286H43c.868 0 1.572.707 1.572 1.577s-.705 1.576-1.572 1.576H27.286a1.575 1.575 0 0 1-1.572-1.576c0-.87.704-1.577 1.572-1.577zM24.143 21A3.142 3.142 0 0 0 21 24.143v22a3.142 3.142 0 0 0 3.143 3.143h17.556l-4.524-4.524a1.567 1.567 0 0 1-.46-1.111v-5.365c0-.868.703-1.572 1.57-1.572h5.366c.416 0 .817.165 1.11.46l4.525 4.525V24.143A3.142 3.142 0 0 0 46.143 21z"/></g></g></g></g></svg>