<svg xmlns="http://www.w3.org/2000/svg" width="109" height="109" viewBox="0 0 109 109"><defs><mask id="9oz0b" width="2" height="2" x="-1" y="-1"><path fill="#fff" d="M38 36h33v33H38z"/><path d="M60 56.429V58h-1.571a1.572 1.572 0 0 0 0 3.143H60v1.571a1.572 1.572 0 0 0 3.143 0v-1.571h1.571a1.572 1.572 0 0 0 0-3.143h-1.571v-1.571a1.572 1.572 0 0 0-3.143 0zM49 59.57c0 1.67.333 3.258.924 4.715H38v-3.929c0-4.249 7.686-6.586 12.651-6.998A12.485 12.485 0 0 0 49 59.571zm22 0C71 64.757 66.757 69 61.571 69c-5.185 0-9.428-4.243-9.428-9.429 0-5.185 4.243-9.428 9.428-9.428 5.186 0 9.429 4.243 9.429 9.428zM58.429 42.286a6.286 6.286 0 1 1-12.572 0 6.286 6.286 0 0 1 12.572 0z"/></mask><filter id="9oz0a" width="129" height="131" x="-10" y="-12" filterUnits="userSpaceOnUse"><feOffset dy="2" in="SourceGraphic" result="FeOffset1213Out"/><feGaussianBlur in="FeOffset1213Out" result="FeGaussianBlur1214Out" stdDeviation="15.2 15.2"/></filter><linearGradient id="9oz0c" x1="54.5" x2="54.5" y1="36" y2="69" gradientUnits="userSpaceOnUse"><stop offset="0" stop-color="#c4c1ff"/><stop offset="1" stop-color="#95a9ff"/></linearGradient></defs><g><g><g><path fill="#fff" d="M55 90c20.435 0 37-16.565 37-37S75.435 16 55 16 18 32.565 18 53s16.565 37 37 37z"/></g><g><g><g filter="url(#9oz0a)"><path fill="none" d="M60 56.429V58h-1.571a1.572 1.572 0 0 0 0 3.143H60v1.571a1.572 1.572 0 0 0 3.143 0v-1.571h1.571a1.572 1.572 0 0 0 0-3.143h-1.571v-1.571a1.572 1.572 0 0 0-3.143 0zM49 59.57c0 1.67.333 3.258.924 4.715H38v-3.929c0-4.249 7.686-6.586 12.651-6.998A12.485 12.485 0 0 0 49 59.571zm22 0C71 64.757 66.757 69 61.571 69c-5.185 0-9.428-4.243-9.428-9.429 0-5.185 4.243-9.428 9.428-9.428 5.186 0 9.429 4.243 9.429 9.428zM58.429 42.286a6.286 6.286 0 1 1-12.572 0 6.286 6.286 0 0 1 12.572 0z" mask="url(&quot;#9oz0b&quot;)"/><path fill="#a8b3ff" fill-opacity=".78" d="M60 56.429V58h-1.571a1.572 1.572 0 0 0 0 3.143H60v1.571a1.572 1.572 0 0 0 3.143 0v-1.571h1.571a1.572 1.572 0 0 0 0-3.143h-1.571v-1.571a1.572 1.572 0 0 0-3.143 0zM49 59.57c0 1.67.333 3.258.924 4.715H38v-3.929c0-4.249 7.686-6.586 12.651-6.998A12.485 12.485 0 0 0 49 59.571zm22 0C71 64.757 66.757 69 61.571 69c-5.185 0-9.428-4.243-9.428-9.429 0-5.185 4.243-9.428 9.428-9.428 5.186 0 9.429 4.243 9.429 9.428zM58.429 42.286a6.286 6.286 0 1 1-12.572 0 6.286 6.286 0 0 1 12.572 0z"/></g><path fill="url(#9oz0c)" d="M60 56.429V58h-1.571a1.572 1.572 0 0 0 0 3.143H60v1.571a1.572 1.572 0 0 0 3.143 0v-1.571h1.571a1.572 1.572 0 0 0 0-3.143h-1.571v-1.571a1.572 1.572 0 0 0-3.143 0zM49 59.57c0 1.67.333 3.258.924 4.715H38v-3.929c0-4.249 7.686-6.586 12.651-6.998A12.485 12.485 0 0 0 49 59.571zm22 0C71 64.757 66.757 69 61.571 69c-5.185 0-9.428-4.243-9.428-9.429 0-5.185 4.243-9.428 9.428-9.428 5.186 0 9.429 4.243 9.429 9.428zM58.429 42.286a6.286 6.286 0 1 1-12.572 0 6.286 6.286 0 0 1 12.572 0z"/></g></g></g></g></svg>