<?xml version="1.0" encoding="utf-8"?>
<svg width="330px" height="61px" viewBox="0 0 330 61" version="1.1" xmlns:xlink="http://www.w3.org/1999/xlink" xmlns="http://www.w3.org/2000/svg">
  <defs>
    <linearGradient x1="0.5" y1="0" x2="0.5" y2="1" id="gradient_1">
      <stop offset="0" stop-color="#056DC5" />
      <stop offset="1" stop-color="#023B93" />
    </linearGradient>
    <linearGradient x1="0.5" y1="0" x2="0.5" y2="1" id="gradient_2">
      <stop offset="0" stop-color="#9CCEFF" />
      <stop offset="1" stop-color="#3071D7" />
    </linearGradient>
  </defs>
  <g id="Group-2">
    <g id="Group" transform="translate(0 1)">
      <path d="M44.5811 43.7127C49.0376 39.0715 51.7759 32.7738 51.7759 25.8378C51.7759 11.568 40.1854 0 25.8879 0C11.5904 0 0 11.568 0 25.8378C0 32.7738 2.7383 39.0715 7.19478 43.7127C8.92917 41.013 11.2346 38.7138 13.9409 36.9847C10.1055 34.0696 7.68103 29.7751 7.68103 24.986C7.68103 16.2046 15.8325 9.08583 25.8879 9.08583C35.9433 9.08583 44.0948 16.2046 44.0948 24.986C44.0948 29.7751 41.6704 34.0696 37.8349 36.9847C40.5413 38.7138 42.8467 41.013 44.5811 43.7127Z" id="Combined-Shape" fill="url(#gradient_1)" fill-rule="evenodd" stroke="none" />
      <path d="M9.9569 19.8752C15.4559 19.8752 19.9138 15.426 19.9138 9.93762C19.9138 4.44923 15.4559 0 9.9569 0C4.45785 0 0 4.44923 0 9.93762C0 15.426 4.45785 19.8752 9.9569 19.8752Z" transform="translate(15.931034 15.332336)" id="Oval" fill="#63A0FF" fill-rule="evenodd" stroke="none" />
      <path d="M15.8044 23.5037C15.8044 23.5037 28.0695 12.5098 31.7514 8.44688C28.7729 3.91683 23.9088 0.732403 18.2728 0.00504376L17.2268 3.29602L18.5152 9.91517L12.5992 12.0642L14.541 3.25418L13.3755 -4.6604e-06C7.81186 0.706249 2.99694 3.80637 0 8.23321C3.50339 12.0387 15.8044 23.5037 15.8044 23.5037ZM12.1649 14.0349L11.5372 16.8829L15.8044 20.858L19.8713 16.8829L18.8447 11.6084L12.1649 14.0349Z" transform="translate(10.083496 36.496326)" id="Combined-Shape" fill="url(#gradient_2)" fill-rule="evenodd" stroke="none" />
      <path d="M3.35269 0L11.2885 1.07532L11.2607 1.11928C14.814 1.51421 17.5768 4.52189 17.5768 8.17362C17.5768 12.0939 14.3927 15.2719 10.4648 15.2719C7.92316 15.2719 5.69294 13.9413 4.43529 11.94L4.42163 11.9616L0 5.31238C0 5.31238 1.51192 3.68387 2.08473 2.77625C2.65754 1.86862 3.35269 0 3.35269 0Z" transform="translate(48.42317 35.835857)" id="Combined-Shape" fill="#023B93" fill-rule="evenodd" stroke="none" />
    </g>
    <g id="перехват-клиентов" transform="translate(70.5 0)">
      <g id="перехват-" fill="#0464BC">
        <path d="M18.0611 17.38Q17.3731 19.06 17.3731 21.3Q17.3731 23.156 17.9011 24.756Q18.4291 26.356 19.5331 27.524Q20.6371 28.692 22.3171 29.364Q23.9971 30.036 26.2691 30.036Q27.1651 30.036 28.0611 29.94Q28.9571 29.844 29.7411 29.7Q30.5251 29.556 31.1651 29.364Q31.8051 29.172 32.1891 28.98L31.5491 25.108Q30.7491 25.46 29.4851 25.7Q28.2211 25.94 26.9091 25.94Q24.8611 25.94 23.6451 25.076Q22.4291 24.212 22.2691 22.74L33.0851 22.74Q33.1171 22.356 33.1491 21.86Q33.1811 21.364 33.1811 20.948Q33.1811 16.692 31.1011 14.5Q29.0211 12.308 25.4371 12.308Q23.9011 12.308 22.4451 12.884Q20.9891 13.46 19.8691 14.58Q18.7491 15.7 18.0611 17.38ZM49.385 22.7192Q49.2687 23.7825 48.9863 24.724Q48.5063 26.324 47.5783 27.476Q46.6503 28.628 45.2743 29.268Q43.8983 29.908 42.1063 29.908Q41.1143 29.908 40.2503 29.716Q39.3863 29.524 38.5863 29.172L38.5863 35.508L33.8183 35.508L33.8183 13.332Q34.4583 13.14 35.2903 12.964Q36.1223 12.788 37.0343 12.66Q37.9463 12.532 38.8903 12.452Q39.8343 12.372 40.6983 12.372Q42.7783 12.372 44.4103 12.996Q46.0423 13.62 47.1623 14.756Q48.2823 15.892 48.8743 17.524Q49.2544 18.5718 49.3904 19.7778Q49.5481 18.4626 49.9914 17.38Q50.6794 15.7 51.7994 14.58Q52.9194 13.46 54.3754 12.884Q55.8314 12.308 57.3674 12.308Q60.9514 12.308 63.0314 14.5Q65.1114 16.692 65.1114 20.948Q65.1114 21.364 65.0794 21.86Q65.0474 22.356 65.0154 22.74L54.1994 22.74Q54.3594 24.212 55.5754 25.076Q56.7914 25.94 58.8394 25.94Q60.1514 25.94 61.4154 25.7Q62.6794 25.46 63.4794 25.108L64.1194 28.98Q63.7354 29.172 63.0954 29.364Q62.4554 29.556 61.6714 29.7Q60.8874 29.844 59.9914 29.94Q59.0954 30.036 58.1994 30.036Q55.9274 30.036 54.2474 29.364Q52.5674 28.692 51.4634 27.524Q50.3594 26.356 49.8314 24.756Q49.5109 23.7848 49.385 22.7192ZM102.575 12.308Q104.687 12.308 106.095 12.788Q107.503 13.268 108.351 14.164Q109.199 15.06 109.551 16.34Q109.566 16.3941 109.58 16.4488L109.58 12.756L125.1 12.756L125.1 16.66L119.724 16.66L119.724 29.588L114.956 29.588L114.956 16.66L109.632 16.66Q109.903 17.8133 109.903 19.188L109.903 29.108Q108.879 29.332 107.055 29.636Q105.231 29.94 102.639 29.94Q101.007 29.94 99.6788 29.652Q98.3509 29.364 97.3909 28.708Q96.4308 28.052 95.9189 26.996Q95.7428 26.6329 95.6273 26.2129Q95.5657 26.3976 95.4897 26.58Q95.0897 27.54 94.1297 28.276Q93.1697 29.012 91.6017 29.46Q90.0337 29.908 87.7297 29.908Q86.8337 29.908 85.8097 29.844Q84.7857 29.78 83.7937 29.668Q82.8017 29.556 81.9217 29.412Q81.2295 29.2987 80.7056 29.1954Q80.8146 29.3945 80.9166 29.588L75.8031 29.588Q75.5426 29.1065 75.1591 28.3863Q74.7756 27.666 74.2961 26.8815Q73.8166 26.097 73.2946 25.5522Q72.7726 25.0075 72.2661 24.5625Q71.7826 24.9765 71.2828 25.478Q70.7831 25.9795 70.3333 26.7303Q69.8836 27.481 69.4498 28.2158Q69.0161 28.9505 68.6791 29.588L63.8286 29.588Q64.2306 28.8005 64.8906 27.704Q65.5506 26.6075 66.3378 25.442Q67.1251 24.2765 68.0408 23.1768Q68.9566 22.077 69.8386 21.113Q68.2691 18.8825 66.8206 16.8248Q65.3721 14.767 63.9566 12.756L69.1086 12.756L72.4186 17.4745L75.7646 12.756L80.6926 12.756L80.523 12.9936Q81.1053 12.8759 81.9217 12.772Q82.8017 12.66 83.7937 12.564Q84.7857 12.468 85.8097 12.42Q86.8337 12.372 87.7297 12.372Q89.8097 12.372 91.2337 12.788Q92.6577 13.204 93.5377 13.876Q94.4177 14.548 94.8017 15.38Q95.1857 16.212 95.1857 17.044Q95.1857 18.164 94.6417 19.092Q94.0977 20.02 93.2657 20.436Q93.7137 20.628 94.1777 20.98Q94.6417 21.332 95.0257 21.828Q95.3703 22.273 95.5989 22.8726Q95.744 22.3488 95.9988 21.908Q96.5909 20.884 97.5828 20.276Q98.5749 19.668 99.8549 19.396Q101.135 19.124 102.511 19.124Q103.439 19.124 104.159 19.204Q104.879 19.284 105.327 19.412L105.327 18.964Q105.327 17.748 104.591 17.012Q103.855 16.276 102.031 16.276Q100.815 16.276 99.6309 16.452Q98.4469 16.628 97.5828 16.948L96.9749 13.108Q97.3909 12.98 98.0148 12.836Q98.6388 12.692 99.3748 12.58Q100.111 12.468 100.927 12.388Q101.743 12.308 102.575 12.308ZM16.736 29.588L16.736 12.756L2.24 12.756L2.24 29.588L7.008 29.588L7.008 16.724L11.968 16.724L11.968 29.588L16.736 29.588ZM80.4337 28.7098L80.4337 13.1187L74.8506 20.941Q76.8591 23.2475 78.4181 25.5258Q79.6056 27.2612 80.4337 28.7098ZM89.8097 19.044Q89.0737 19.348 87.8897 19.348L85.2017 19.348L85.2017 16.212Q85.6497 16.148 86.3697 16.1Q87.0897 16.052 87.5377 16.052Q88.8817 16.052 89.7137 16.404Q90.5457 16.756 90.5457 17.716Q90.5457 18.74 89.8097 19.044ZM28.3651 18.292Q28.5411 18.868 28.5731 19.476L22.2691 19.476Q22.3651 18.868 22.5731 18.276Q22.7811 17.684 23.1651 17.236Q23.5491 16.788 24.1251 16.516Q24.7011 16.244 25.5011 16.244Q26.3331 16.244 26.8931 16.532Q27.4531 16.82 27.8211 17.268Q28.1891 17.716 28.3651 18.292ZM60.2954 18.292Q60.4714 18.868 60.5034 19.476L54.1994 19.476Q54.2954 18.868 54.5034 18.276Q54.7114 17.684 55.0954 17.236Q55.4794 16.788 56.0554 16.516Q56.6314 16.244 57.4314 16.244Q58.2634 16.244 58.8234 16.532Q59.3834 16.82 59.7514 17.268Q60.1194 17.716 60.2954 18.292ZM44.6023 21.3Q44.6023 19.092 43.6103 17.764Q42.6183 16.436 40.6663 16.436Q40.0263 16.436 39.4823 16.484Q38.9383 16.532 38.5863 16.596L38.5863 25.204Q39.0343 25.492 39.7543 25.684Q40.4743 25.876 41.2103 25.876Q44.6023 25.876 44.6023 21.3ZM102.959 26.26Q103.663 26.26 104.303 26.228Q104.943 26.196 105.327 26.132L105.327 22.516Q105.039 22.452 104.463 22.388Q103.887 22.324 103.407 22.324Q102.735 22.324 102.143 22.404Q101.551 22.484 101.103 22.708Q100.655 22.932 100.399 23.316Q100.143 23.7 100.143 24.276Q100.143 25.396 100.895 25.828Q101.647 26.26 102.959 26.26ZM86.4017 26.18Q85.6497 26.132 85.2017 26.068L85.2017 22.548L87.9857 22.548Q89.5537 22.548 90.3697 22.948Q91.1857 23.348 91.1857 24.372Q91.1857 25.428 90.2897 25.828Q89.3937 26.228 87.7937 26.228Q87.1537 26.228 86.4017 26.18Z" />
      </g>
      <g id="клиентов" fill="#373737">
        <path d="M182.001 17.38Q181.313 19.06 181.313 21.3Q181.313 23.156 181.841 24.756Q182.369 26.356 183.473 27.524Q184.577 28.692 186.257 29.364Q187.937 30.036 190.209 30.036Q191.105 30.036 192.001 29.94Q192.897 29.844 193.681 29.7Q194.465 29.556 195.105 29.364Q195.745 29.172 196.129 28.98L195.489 25.108Q194.689 25.46 193.425 25.7Q192.161 25.94 190.849 25.94Q188.801 25.94 187.585 25.076Q186.369 24.212 186.209 22.74L197.025 22.74Q197.057 22.356 197.089 21.86Q197.121 21.364 197.121 20.948Q197.121 16.692 195.041 14.5Q192.961 12.308 189.377 12.308Q187.841 12.308 186.385 12.884Q184.929 13.46 183.809 14.58Q182.689 15.7 182.001 17.38ZM243.192 21.14Q243.192 23.124 242.616 24.772Q242.04 26.42 240.952 27.588Q239.864 28.756 238.344 29.396Q236.824 30.036 234.936 30.036Q233.08 30.036 231.56 29.396Q230.04 28.756 228.952 27.588Q227.864 26.42 227.256 24.772Q226.648 23.124 226.648 21.14Q226.648 19.156 227.272 17.524Q227.896 15.892 229 14.74Q230.104 13.588 231.624 12.948Q233.144 12.308 234.936 12.308Q236.76 12.308 238.28 12.948Q239.8 13.588 240.888 14.74Q241.976 15.892 242.584 17.524Q243.192 19.156 243.192 21.14ZM249.205 29.844Q250.229 29.908 251.125 29.908Q253.429 29.908 254.997 29.46Q256.565 29.012 257.525 28.276Q258.485 27.54 258.885 26.58Q259.285 25.62 259.285 24.596Q259.285 23.7 259.045 23.012Q258.805 22.324 258.421 21.828Q258.037 21.332 257.573 20.98Q257.109 20.628 256.661 20.436Q257.493 20.02 258.037 19.092Q258.581 18.164 258.581 17.044Q258.581 16.212 258.197 15.38Q257.813 14.548 256.933 13.876Q256.053 13.204 254.629 12.788Q253.205 12.372 251.125 12.372Q250.229 12.372 249.205 12.42Q248.181 12.468 247.189 12.564Q246.197 12.66 245.317 12.772Q244.437 12.884 243.829 13.012L243.829 29.14Q244.437 29.268 245.317 29.412Q246.197 29.556 247.189 29.668Q248.181 29.78 249.205 29.844ZM138.859 17.1578Q138.071 17.9545 137.385 18.627L137.385 12.756L132.617 12.756L132.617 29.588L137.385 29.588L137.385 22.8Q138.097 23.3795 138.922 24.1845Q139.747 24.9895 140.538 25.9095Q141.329 26.8295 142.066 27.7758Q142.804 28.722 143.382 29.588L147 29.588L147.046 29.876Q148.774 29.716 150.07 29.252Q151.366 28.788 152.278 28.084Q153.19 27.38 153.782 26.5Q154.374 25.62 154.758 24.596Q155.078 23.732 155.286 22.74Q155.494 21.748 155.622 20.708Q155.75 19.668 155.798 18.628Q155.846 17.588 155.878 16.66L159.142 16.66L159.142 29.588L163.91 29.588L163.91 12.756L151.27 12.756L151.27 14.676Q151.27 15.796 151.254 17.012Q151.238 18.228 151.142 19.396Q151.046 20.564 150.838 21.62Q150.63 22.676 150.278 23.476Q149.83 24.404 148.934 24.996Q148.038 25.588 146.406 25.908L146.453 26.1954Q145.852 25.4187 145.215 24.6555Q144.173 23.409 143.089 22.3162Q142.006 21.2235 141.049 20.484Q141.997 19.672 143.069 18.616Q144.141 17.56 145.197 16.488Q146.253 15.416 147.198 14.4253Q148.144 13.4345 148.777 12.756L142.985 12.756Q142.454 13.3135 141.789 14.0565Q141.125 14.7995 140.385 15.5803Q139.646 16.361 138.859 17.1578ZM180.675 12.756L180.675 29.588L175.875 29.588Q175.875 27.988 175.907 26.404Q175.939 24.82 175.971 23.476Q176.003 22.132 176.051 21.124Q176.099 20.116 176.099 19.636Q175.171 20.948 174.243 22.292Q173.315 23.636 172.467 24.932Q171.619 26.228 170.867 27.412Q170.115 28.596 169.539 29.588L165.347 29.588L165.347 12.756L170.115 12.756Q170.115 14.356 170.099 15.812Q170.083 17.268 170.051 18.452Q170.019 19.636 169.987 20.516Q169.955 21.396 169.955 21.876Q171.875 19.06 173.491 16.82Q175.107 14.58 176.643 12.756L180.675 12.756ZM212.254 29.588L207.486 29.588L207.486 22.932L202.526 22.932L202.526 29.588L197.758 29.588L197.758 12.756L202.526 12.756L202.526 19.028L207.486 19.028L207.486 12.756L227.611 12.756L227.611 16.66L222.235 16.66L222.235 29.588L217.467 29.588L217.467 16.66L212.254 16.66L212.254 29.588ZM253.205 19.044Q252.469 19.348 251.285 19.348L248.597 19.348L248.597 16.212Q249.045 16.148 249.765 16.1Q250.485 16.052 250.933 16.052Q252.277 16.052 253.109 16.404Q253.941 16.756 253.941 17.716Q253.941 18.74 253.205 19.044ZM192.305 18.292Q192.481 18.868 192.513 19.476L186.209 19.476Q186.305 18.868 186.513 18.276Q186.721 17.684 187.105 17.236Q187.489 16.788 188.065 16.516Q188.641 16.244 189.441 16.244Q190.273 16.244 190.833 16.532Q191.393 16.82 191.761 17.268Q192.129 17.716 192.305 18.292ZM238.328 21.14Q238.328 18.932 237.448 17.668Q236.568 16.404 234.936 16.404Q233.304 16.404 232.408 17.668Q231.512 18.932 231.512 21.14Q231.512 23.348 232.408 24.644Q233.304 25.94 234.936 25.94Q236.568 25.94 237.448 24.644Q238.328 23.348 238.328 21.14ZM249.797 26.18Q249.045 26.132 248.597 26.068L248.597 22.548L251.381 22.548Q252.949 22.548 253.765 22.948Q254.581 23.348 254.581 24.372Q254.581 25.428 253.685 25.828Q252.789 26.228 251.189 26.228Q250.549 26.228 249.797 26.18Z" />
      </g>
    </g>
    <g id="помогаем-клиентам-выбрать-вас" fill="#A9A9A9" transform="translate(72.5 30)">
      <path d="M186.34 8.0705Q186.867 7.6455 187.573 7.416Q188.278 7.1865 188.924 7.1865Q190.828 7.1865 191.806 8.351Q192.783 9.5155 192.783 11.5895Q192.783 12.4735 192.545 13.2895Q192.307 14.1055 191.806 14.7345Q191.304 15.3635 190.539 15.7375Q189.774 16.1115 188.72 16.1115Q187.513 16.1115 186.714 15.6695Q185.915 15.2275 185.448 14.4625Q184.98 13.6975 184.793 12.6775Q184.606 11.6575 184.606 10.5185Q184.606 9.0395 184.819 7.7645Q185.031 6.4895 185.592 5.5205Q186.153 4.5515 187.148 3.914Q188.142 3.2765 189.706 3.0555Q190.165 2.9875 190.514 2.945Q190.862 2.9025 191.126 2.8685Q191.389 2.8345 191.61 2.792Q191.831 2.7495 192.069 2.6985L192.239 4.1265Q192.12 4.1605 191.993 4.1775Q191.865 4.1945 191.636 4.2285Q191.406 4.2625 191.024 4.3135Q190.641 4.3645 190.029 4.4325Q188.346 4.6195 187.445 5.4525Q186.544 6.2855 186.34 8.0705ZM18.4159 13.3745Q18.7219 12.5245 18.7219 11.4705Q18.7219 10.4335 18.4159 9.575Q18.1099 8.7165 17.5574 8.1045Q17.0049 7.4925 16.2399 7.161Q15.4749 6.8295 14.5739 6.8295Q13.6729 6.8295 12.9079 7.161Q12.1429 7.4925 11.5904 8.1045Q11.0379 8.7165 10.7319 9.575Q10.4259 10.4335 10.4259 11.4705Q10.4259 12.5245 10.7319 13.3745Q11.0379 14.2245 11.5904 14.8365Q12.1429 15.4485 12.9079 15.78Q13.6729 16.1115 14.5739 16.1115Q15.4749 16.1115 16.2399 15.78Q17.0049 15.4485 17.5574 14.8365Q18.1099 14.2245 18.4159 13.3745ZM40.3387 13.3745Q40.6447 12.5245 40.6447 11.4705Q40.6447 10.4335 40.3387 9.575Q40.0327 8.7165 39.4802 8.1045Q38.9277 7.4925 38.1627 7.161Q37.3977 6.8295 36.4967 6.8295Q35.5957 6.8295 34.8307 7.161Q34.0657 7.4925 33.5132 8.1045Q32.9607 8.7165 32.6547 9.575Q32.3487 10.4335 32.3487 11.4705Q32.3487 12.5245 32.6547 13.3745Q32.9607 14.2245 33.5132 14.8365Q34.0657 15.4485 34.8307 15.78Q35.5957 16.1115 36.4967 16.1115Q37.3977 16.1115 38.1627 15.78Q38.9277 15.4485 39.4802 14.8365Q40.0327 14.2245 40.3387 13.3745ZM53.9061 7.076Q53.2516 6.8295 52.2996 6.8295Q51.4666 6.8295 50.7526 6.957Q50.0386 7.0845 49.7326 7.2205L49.9196 8.5295Q50.2086 8.4105 50.7951 8.3Q51.3816 8.1895 52.1636 8.1895Q52.7756 8.1895 53.1581 8.368Q53.5406 8.5465 53.7616 8.844Q53.9826 9.1415 54.0676 9.524Q54.1526 9.9065 54.1526 10.2975L54.1526 10.7395Q54.0846 10.7225 53.9146 10.6885Q53.7446 10.6545 53.5151 10.612Q53.2856 10.5695 53.0306 10.544Q52.7756 10.5185 52.5376 10.5185Q51.7896 10.5185 51.1096 10.6715Q50.4296 10.8245 49.9196 11.1475Q49.4096 11.4705 49.1121 11.9975Q48.8146 12.5245 48.8146 13.2555Q48.8146 14.0205 49.0696 14.5645Q49.3246 15.1085 49.7836 15.44Q50.2426 15.7715 50.8716 15.9245Q51.5006 16.0775 52.2486 16.0775Q52.7756 16.0775 53.3111 16.035Q53.8466 15.9925 54.3056 15.9415C54.6116 15.9075 54.8864 15.8707 55.1301 15.831Q55.4956 15.7715 55.6996 15.7375L55.6996 10.2125Q55.6996 9.4645 55.5296 8.844Q55.3596 8.2235 54.9601 7.773Q54.5606 7.3225 53.9061 7.076ZM57.5575 11.4875Q57.5575 10.3145 57.8975 9.439Q58.2375 8.5635 58.7985 7.9855Q59.3595 7.4075 60.0905 7.1185Q60.8215 6.8295 61.5865 6.8295Q63.3715 6.8295 64.3235 7.943Q65.2755 9.0565 65.2755 11.3345L65.2755 11.598Q65.2755 11.7595 65.2585 11.8955L59.2065 11.8955Q59.3085 13.2725 60.0055 13.9865Q60.7025 14.7005 62.1815 14.7005Q63.0145 14.7005 63.584 14.556Q64.1535 14.4115 64.4425 14.2755L64.6635 15.6015Q64.3745 15.7545 63.652 15.9245Q62.9295 16.0945 62.0115 16.0945Q60.8555 16.0945 60.014 15.746Q59.1725 15.3975 58.6285 14.7855Q58.0845 14.1735 57.821 13.332Q57.5575 12.4905 57.5575 11.4875ZM111.863 9.439Q111.523 10.3145 111.523 11.4875Q111.523 12.4905 111.787 13.332Q112.05 14.1735 112.594 14.7855Q113.138 15.3975 113.98 15.746Q114.821 16.0945 115.977 16.0945Q116.895 16.0945 117.618 15.9245Q118.34 15.7545 118.629 15.6015L118.408 14.2755Q118.119 14.4115 117.55 14.556Q116.98 14.7005 116.147 14.7005Q114.668 14.7005 113.971 13.9865Q113.274 13.2725 113.172 11.8955L119.224 11.8955Q119.241 11.7595 119.241 11.598L119.241 11.3345Q119.241 9.0565 118.289 7.943Q117.337 6.8295 115.552 6.8295Q114.787 6.8295 114.056 7.1185Q113.325 7.4075 112.764 7.9855Q112.203 8.5635 111.863 9.439ZM141.407 6.8295Q142.359 6.8295 143.013 7.076Q143.668 7.3225 144.067 7.773Q144.467 8.2235 144.637 8.844Q144.807 9.4645 144.807 10.2125L144.807 15.7375Q144.603 15.7715 144.237 15.831C143.994 15.8707 143.719 15.9075 143.413 15.9415Q142.954 15.9925 142.418 16.035Q141.883 16.0775 141.356 16.0775Q140.608 16.0775 139.979 15.9245Q139.35 15.7715 138.891 15.44Q138.432 15.1085 138.177 14.5645Q137.922 14.0205 137.922 13.2555Q137.922 12.5245 138.219 11.9975Q138.517 11.4705 139.027 11.1475Q139.537 10.8245 140.217 10.6715Q140.897 10.5185 141.645 10.5185Q141.883 10.5185 142.138 10.544Q142.393 10.5695 142.622 10.612Q142.852 10.6545 143.022 10.6885Q143.192 10.7225 143.26 10.7395L143.26 10.2975Q143.26 9.9065 143.175 9.524Q143.09 9.1415 142.869 8.844Q142.648 8.5465 142.265 8.368Q141.883 8.1895 141.271 8.1895Q140.489 8.1895 139.902 8.3Q139.316 8.4105 139.027 8.5295L138.84 7.2205Q139.146 7.0845 139.86 6.957Q140.574 6.8295 141.407 6.8295ZM166.441 16.0435Q165.438 16.0435 164.588 15.95Q163.738 15.8565 163.245 15.7375L163.245 7.1355Q163.738 7.0165 164.588 6.923Q165.438 6.8295 166.441 6.8295Q167.138 6.8295 167.801 6.9485Q168.464 7.0675 168.974 7.348Q169.484 7.6285 169.798 8.113Q170.113 8.5975 170.113 9.3115Q170.113 9.9575 169.79 10.4165Q169.467 10.8755 168.923 11.1305Q169.654 11.3855 170.087 11.887Q170.521 12.3885 170.521 13.2895Q170.521 14.0885 170.206 14.6155Q169.892 15.1425 169.339 15.4655Q168.787 15.7885 168.039 15.916Q167.291 16.0435 166.441 16.0435ZM207.362 6.8295Q208.314 6.8295 208.969 7.076Q209.623 7.3225 210.023 7.773Q210.422 8.2235 210.592 8.844Q210.762 9.4645 210.762 10.2125L210.762 15.7375Q210.558 15.7715 210.193 15.831C209.949 15.8707 209.674 15.9075 209.368 15.9415Q208.909 15.9925 208.374 16.035Q207.838 16.0775 207.311 16.0775Q206.563 16.0775 205.934 15.9245Q205.305 15.7715 204.846 15.44Q204.387 15.1085 204.132 14.5645Q203.877 14.0205 203.877 13.2555Q203.877 12.5245 204.175 11.9975Q204.472 11.4705 204.982 11.1475Q205.492 10.8245 206.172 10.6715Q206.852 10.5185 207.6 10.5185Q207.838 10.5185 208.093 10.544Q208.348 10.5695 208.578 10.612Q208.807 10.6545 208.977 10.6885Q209.147 10.7225 209.215 10.7395L209.215 10.2975Q209.215 9.9065 209.13 9.524Q209.045 9.1415 208.824 8.844Q208.603 8.5465 208.221 8.368Q207.838 8.1895 207.226 8.1895Q206.444 8.1895 205.858 8.3Q205.271 8.4105 204.982 8.5295L204.795 7.2205Q205.101 7.0845 205.815 6.957Q206.529 6.8295 207.362 6.8295ZM234.696 15.95Q235.546 16.0435 236.549 16.0435Q237.399 16.0435 238.147 15.916Q238.895 15.7885 239.448 15.4655Q240 15.1425 240.315 14.6155Q240.629 14.0885 240.629 13.2895Q240.629 12.3885 240.196 11.887Q239.762 11.3855 239.031 11.1305Q239.575 10.8755 239.898 10.4165Q240.221 9.9575 240.221 9.3115Q240.221 8.5975 239.907 8.113Q239.592 7.6285 239.082 7.348Q238.572 7.0675 237.909 6.9485Q237.246 6.8295 236.549 6.8295Q235.546 6.8295 234.696 6.923Q233.846 7.0165 233.353 7.1355L233.353 15.7375Q233.846 15.8565 234.696 15.95ZM245.258 6.8295Q246.21 6.8295 246.864 7.076Q247.519 7.3225 247.918 7.773Q248.318 8.2235 248.488 8.844Q248.658 9.4645 248.658 10.2125L248.658 15.7375Q248.454 15.7715 248.088 15.831C247.845 15.8707 247.57 15.9075 247.264 15.9415Q246.805 15.9925 246.269 16.035Q245.734 16.0775 245.207 16.0775Q244.459 16.0775 243.83 15.9245Q243.201 15.7715 242.742 15.44Q242.283 15.1085 242.028 14.5645Q241.773 14.0205 241.773 13.2555Q241.773 12.5245 242.07 11.9975Q242.368 11.4705 242.878 11.1475Q243.388 10.8245 244.068 10.6715Q244.748 10.5185 245.496 10.5185Q245.734 10.5185 245.989 10.544Q246.244 10.5695 246.473 10.612Q246.703 10.6545 246.873 10.6885Q247.043 10.7225 247.111 10.7395L247.111 10.2975Q247.111 9.9065 247.026 9.524Q246.941 9.1415 246.72 8.844Q246.499 8.5465 246.116 8.368Q245.734 8.1895 245.122 8.1895Q244.34 8.1895 243.753 8.3Q243.167 8.4105 242.878 8.5295L242.691 7.2205Q242.997 7.0845 243.711 6.957Q244.425 6.8295 245.258 6.8295ZM252.972 15.7545Q253.78 16.0945 254.851 16.0945Q255.191 16.0945 255.556 16.052Q255.922 16.0095 256.245 15.95C256.46 15.9103 256.653 15.865 256.823 15.814Q257.078 15.7375 257.214 15.6525L256.993 14.3265Q256.704 14.4625 256.194 14.5815Q255.684 14.7005 255.055 14.7005Q254.273 14.7005 253.729 14.471Q253.185 14.2415 252.836 13.8165Q252.488 13.3915 252.326 12.7965Q252.165 12.2015 252.165 11.4875Q252.165 9.8895 252.87 9.0565Q253.576 8.2235 254.902 8.2235Q255.429 8.2235 255.896 8.3255Q256.364 8.4275 256.721 8.5975L257.078 7.2545Q256.534 7.0335 255.939 6.9315Q255.344 6.8295 254.749 6.8295Q253.78 6.8295 252.989 7.178Q252.199 7.5265 251.655 8.147Q251.111 8.7675 250.813 9.6175Q250.516 10.4675 250.516 11.4875Q250.516 12.5075 250.788 13.349Q251.06 14.1905 251.612 14.8025Q252.165 15.4145 252.972 15.7545ZM202.283 13.3405Q202.546 12.4905 202.546 11.4875Q202.546 10.4165 202.232 9.558Q201.917 8.6995 201.339 8.1045Q200.761 7.5095 199.945 7.1865Q199.129 6.8635 198.109 6.8635Q197.004 6.8635 196.163 7.025Q195.321 7.1865 194.76 7.3225L194.76 19.0355L196.341 19.0355L196.341 15.4995Q196.63 15.6865 197.217 15.8905Q197.803 16.0945 198.568 16.0945Q199.52 16.0945 200.26 15.7545Q200.999 15.4145 201.509 14.8025Q202.019 14.1905 202.283 13.3405ZM6.885 15.8905L8.466 15.8905L8.466 7.0505L1.36 7.0505L1.36 15.8905L2.941 15.8905L2.941 8.3765L6.885 8.3765L6.885 15.8905ZM22.3648 9.3795Q22.1948 11.0625 22.1098 12.737Q22.0248 14.4115 21.9738 15.8905L20.4608 15.8905Q20.4948 14.8535 20.5628 13.723Q20.6308 12.5925 20.7158 11.445Q20.8008 10.2975 20.9028 9.184Q21.0048 8.0705 21.1238 7.0505L22.5688 7.0505Q23.1128 7.9345 23.8438 9.473Q24.5748 11.0115 25.5268 13.0175Q26.4788 11.0115 27.2098 9.473Q27.9408 7.9345 28.4848 7.0505L29.9468 7.0505Q30.0658 8.0705 30.1678 9.184Q30.2698 10.2975 30.3548 11.445Q30.4398 12.5925 30.5078 13.723Q30.5758 14.8535 30.6098 15.8905L29.0458 15.8905Q28.9948 14.4115 28.9098 12.737Q28.8248 11.0625 28.6548 9.3795Q28.3828 9.9065 28.0258 10.646Q27.6688 11.3855 27.3203 12.1505Q26.9718 12.9155 26.6658 13.6125Q26.3598 14.3095 26.1898 14.7175L24.8638 14.7175Q24.6768 14.2925 24.3623 13.5955Q24.0478 12.8985 23.6993 12.125Q23.3508 11.3515 22.9938 10.612Q22.6368 9.8725 22.3648 9.3795ZM48.0787 8.3765L44.1857 8.3765L44.1857 15.8905L42.6047 15.8905L42.6047 7.0505L48.0787 7.0505L48.0787 8.3765ZM68.7144 12.737Q68.7994 11.0625 68.9694 9.3795Q69.2414 9.8725 69.5984 10.612Q69.9554 11.3515 70.3039 12.125Q70.6524 12.8985 70.9669 13.5955Q71.2814 14.2925 71.4684 14.7175L72.7944 14.7175Q72.9644 14.3095 73.2704 13.6125Q73.5764 12.9155 73.9249 12.1505Q74.2734 11.3855 74.6304 10.646Q74.9874 9.9065 75.2594 9.3795Q75.4294 11.0625 75.5144 12.737Q75.5994 14.4115 75.6504 15.8905L77.2144 15.8905Q77.1804 14.8535 77.1124 13.723Q77.0444 12.5925 76.9594 11.445Q76.8744 10.2975 76.7724 9.184Q76.6704 8.0705 76.5514 7.0505L75.0894 7.0505Q74.5454 7.9345 73.8144 9.473Q73.0834 11.0115 72.1314 13.0175Q71.1794 11.0115 70.4484 9.473Q69.7174 7.9345 69.1734 7.0505L67.7284 7.0505Q67.6094 8.0705 67.5074 9.184Q67.4054 10.2975 67.3204 11.445Q67.2354 12.5925 67.1674 13.723Q67.0994 14.8535 67.0654 15.8905L68.5784 15.8905Q68.6294 14.4115 68.7144 12.737ZM86.6033 11.0795Q87.1303 11.4535 87.7423 12.023Q88.3543 12.5925 88.9408 13.2555Q89.5273 13.9185 90.0373 14.607Q90.5473 15.2955 90.9043 15.8905L89.0343 15.8905Q88.6603 15.3125 88.1588 14.709Q87.6573 14.1055 87.1133 13.5445Q86.5693 12.9835 86.0083 12.5075Q85.4473 12.0315 84.9543 11.7085L84.9543 15.8905L83.3733 15.8905L83.3733 7.0505L84.9543 7.0505L84.9543 10.8415Q85.3623 10.4505 85.8893 9.932Q86.4163 9.4135 86.9518 8.878Q87.4873 8.3425 87.9463 7.858Q88.4053 7.3735 88.6943 7.0505L90.5303 7.0505Q90.1563 7.4585 89.6548 7.977Q89.1533 8.4955 88.6178 9.0395Q88.0823 9.5835 87.5553 10.119Q87.0283 10.6545 86.6033 11.0795ZM95.2867 9.575Q95.3122 8.9375 95.3122 8.3765L98.1002 8.3765L98.1002 15.8905L99.6812 15.8905L99.6812 7.0505L93.7992 7.0505Q93.7992 7.7645 93.7907 8.5635Q93.7822 9.3625 93.7312 10.153Q93.6802 10.9435 93.5612 11.6745Q93.4422 12.4055 93.1872 12.9835Q92.8982 13.6465 92.4137 14.1055Q91.9292 14.5645 91.0962 14.7345L91.3172 16.0605Q92.0482 15.9925 92.5922 15.746Q93.1362 15.4995 93.5442 15.134Q93.9522 14.7685 94.2327 14.2925Q94.5132 13.8165 94.7002 13.2725Q94.8872 12.7285 95.0062 12.108Q95.1252 11.4875 95.1932 10.85Q95.2612 10.2125 95.2867 9.575ZM109.563 15.8905L108.033 15.8905L108.033 9.1585Q107.523 9.8045 106.911 10.6715Q106.299 11.5385 105.687 12.465Q105.075 13.3915 104.514 14.2925Q103.953 15.1935 103.545 15.8905L102.134 15.8905L102.134 7.0505L103.664 7.0505L103.664 13.4085Q104.106 12.6775 104.667 11.802Q105.228 10.9265 105.832 10.068Q106.435 9.2095 107.039 8.419Q107.642 7.6285 108.169 7.0505L109.563 7.0505L109.563 15.8905ZM128.494 15.8905L126.913 15.8905L126.913 11.9805L122.833 11.9805L122.833 15.8905L121.252 15.8905L121.252 7.0505L122.833 7.0505L122.833 10.6545L126.913 10.6545L126.913 7.0505L128.494 7.0505L128.494 15.8905ZM137.186 8.3765L137.186 7.0505L129.859 7.0505L129.859 8.3765L132.732 8.3765L132.732 15.8905L134.313 15.8905L134.313 8.3765L137.186 8.3765ZM148.586 12.737Q148.671 11.0625 148.841 9.3795Q149.113 9.8725 149.47 10.612Q149.827 11.3515 150.175 12.125Q150.524 12.8985 150.838 13.5955Q151.153 14.2925 151.34 14.7175L152.666 14.7175Q152.836 14.3095 153.142 13.6125Q153.448 12.9155 153.796 12.1505Q154.145 11.3855 154.502 10.646Q154.859 9.9065 155.131 9.3795Q155.301 11.0625 155.386 12.737Q155.471 14.4115 155.522 15.8905L157.086 15.8905Q157.052 14.8535 156.984 13.723Q156.916 12.5925 156.831 11.445Q156.746 10.2975 156.644 9.184Q156.542 8.0705 156.423 7.0505L154.961 7.0505Q154.417 7.9345 153.686 9.473Q152.955 11.0115 152.003 13.0175Q151.051 11.0115 150.32 9.473Q149.589 7.9345 149.045 7.0505L147.6 7.0505Q147.481 8.0705 147.379 9.184Q147.277 10.2975 147.192 11.445Q147.107 12.5925 147.039 13.723Q146.971 14.8535 146.937 15.8905L148.45 15.8905Q148.501 14.4115 148.586 12.737ZM173.875 7.0505L172.294 7.0505L172.294 15.7035C172.804 15.8282 173.331 15.9217 173.875 15.984Q174.691 16.0775 175.49 16.0775Q176.323 16.0775 177.02 15.916Q177.717 15.7545 178.21 15.3975Q178.703 15.0405 178.975 14.4795Q179.247 13.9185 179.247 13.1195Q179.247 12.3545 178.966 11.802Q178.686 11.2495 178.21 10.901Q177.734 10.5525 177.105 10.391Q176.476 10.2295 175.779 10.2295Q175.269 10.2295 174.716 10.2975Q174.164 10.3655 173.875 10.4335L173.875 7.0505ZM180.879 15.8905L182.46 15.8905L182.46 7.0505L180.879 7.0505L180.879 15.8905ZM219.352 8.3765L219.352 7.0505L212.025 7.0505L212.025 8.3765L214.898 8.3765L214.898 15.8905L216.479 15.8905L216.479 8.3765L219.352 8.3765ZM220.717 15.7035L220.717 7.0505L222.298 7.0505L222.298 10.4335Q222.434 10.3995 222.664 10.3655Q222.893 10.3315 223.157 10.2975Q223.42 10.2635 223.709 10.2465Q223.998 10.2295 224.253 10.2295Q224.984 10.2295 225.63 10.391Q226.276 10.5525 226.761 10.901Q227.245 11.2495 227.534 11.802Q227.823 12.3545 227.823 13.1195Q227.823 13.9185 227.551 14.4795Q227.279 15.0405 226.769 15.3975Q226.259 15.7545 225.554 15.916Q224.848 16.0775 223.981 16.0775Q223.131 16.0775 222.315 15.984Q221.499 15.8905 220.717 15.7035ZM166.475 10.6715Q166.934 10.6715 167.316 10.612Q167.699 10.5525 167.979 10.3995Q168.26 10.2465 168.421 9.9915Q168.583 9.7365 168.583 9.3455Q168.583 8.9375 168.379 8.6995Q168.175 8.4615 167.843 8.334Q167.512 8.2065 167.095 8.164Q166.679 8.1215 166.254 8.1215Q165.863 8.1215 165.463 8.1385Q165.064 8.1555 164.792 8.1725L164.792 10.6715L166.475 10.6715ZM237.425 10.612Q237.042 10.6715 236.583 10.6715L234.9 10.6715L234.9 8.1725Q235.172 8.1555 235.572 8.1385Q235.971 8.1215 236.362 8.1215Q236.787 8.1215 237.204 8.164Q237.62 8.2065 237.952 8.334Q238.283 8.4615 238.487 8.6995Q238.691 8.9375 238.691 9.3455Q238.691 9.7365 238.53 9.9915Q238.368 10.2465 238.088 10.3995Q237.807 10.5525 237.425 10.612ZM63.6265 10.6205Q63.6435 9.5495 63.091 8.861Q62.5385 8.1725 61.5695 8.1725Q61.0255 8.1725 60.609 8.385Q60.1925 8.5975 59.9035 8.9375Q59.6145 9.2775 59.453 9.7195Q59.2915 10.1615 59.2405 10.6205L63.6265 10.6205ZM117.057 8.861Q117.609 9.5495 117.592 10.6205L113.206 10.6205Q113.257 10.1615 113.419 9.7195Q113.58 9.2775 113.869 8.9375Q114.158 8.5975 114.575 8.385Q114.991 8.1725 115.535 8.1725Q116.504 8.1725 117.057 8.861ZM16.4014 9.099Q17.0729 9.9745 17.0729 11.4705Q17.0729 12.9665 16.4014 13.842Q15.7299 14.7175 14.5739 14.7175Q13.4179 14.7175 12.7464 13.842Q12.0749 12.9665 12.0749 11.4705Q12.0749 9.9745 12.7464 9.099Q13.4179 8.2235 14.5739 8.2235Q15.7299 8.2235 16.4014 9.099ZM38.3242 9.099Q38.9957 9.9745 38.9957 11.4705Q38.9957 12.9665 38.3242 13.842Q37.6527 14.7175 36.4967 14.7175Q35.3407 14.7175 34.6692 13.842Q33.9977 12.9665 33.9977 11.4705Q33.9977 9.9745 34.6692 9.099Q35.3407 8.2235 36.4967 8.2235Q37.6527 8.2235 38.3242 9.099ZM200.132 9.1075Q200.897 9.9405 200.897 11.4875Q200.897 12.1675 200.761 12.754Q200.625 13.3405 200.319 13.774Q200.013 14.2075 199.529 14.454Q199.044 14.7005 198.364 14.7005Q197.718 14.7005 197.174 14.4795Q196.63 14.2585 196.341 14.0205L196.341 8.4445Q196.579 8.3765 196.979 8.3255Q197.378 8.2745 198.092 8.2745Q199.367 8.2745 200.132 9.1075ZM186.238 10.7735Q186.238 11.5725 186.349 12.2865Q186.459 13.0005 186.74 13.5445Q187.02 14.0885 187.496 14.403Q187.972 14.7175 188.72 14.7175Q189.366 14.7175 189.825 14.471Q190.284 14.2245 190.573 13.7995Q190.862 13.3745 190.998 12.805Q191.134 12.2355 191.134 11.5895Q191.134 11.0115 191.024 10.4675Q190.913 9.9235 190.624 9.4985Q190.335 9.0735 189.851 8.8185Q189.366 8.5635 188.635 8.5635Q187.921 8.5635 187.267 8.8695Q186.612 9.1755 186.255 9.6175Q186.238 9.8045 186.238 10.1445L186.238 10.7735ZM174.648 11.547Q175.082 11.5215 175.541 11.5215Q175.949 11.5215 176.323 11.615Q176.697 11.7085 176.994 11.904Q177.292 12.0995 177.47 12.4055Q177.649 12.7115 177.649 13.1365Q177.649 14.0035 177.088 14.3945Q176.527 14.7855 175.49 14.7855Q175.303 14.7855 175.065 14.777Q174.827 14.7685 174.597 14.76Q174.368 14.7515 174.172 14.7345Q173.977 14.7175 173.875 14.7005L173.875 11.6575Q174.215 11.5725 174.648 11.547ZM224.066 14.7855Q225.069 14.7855 225.647 14.3945Q226.225 14.0035 226.225 13.1365Q226.225 12.7115 226.055 12.4055Q225.885 12.0995 225.588 11.904Q225.29 11.7085 224.899 11.615Q224.508 11.5215 224.066 11.5215Q223.607 11.5215 223.123 11.547Q222.638 11.5725 222.298 11.6575L222.298 14.7005Q222.4 14.7175 222.604 14.7345Q222.808 14.7515 223.055 14.76Q223.301 14.7685 223.565 14.777Q223.828 14.7855 224.066 14.7855ZM53.4301 14.726Q52.9966 14.7515 52.4356 14.7515Q51.5006 14.7515 50.9566 14.42Q50.4126 14.0885 50.4126 13.2385Q50.4126 12.7795 50.6336 12.499Q50.8546 12.2185 51.1861 12.057Q51.5176 11.8955 51.9171 11.8445Q52.3166 11.7935 52.6736 11.7935Q53.2176 11.7935 53.6001 11.853Q53.9826 11.9125 54.1526 11.9975L54.1526 14.6325Q53.8636 14.7005 53.4301 14.726ZM141.543 14.7515Q142.104 14.7515 142.537 14.726Q142.971 14.7005 143.26 14.6325L143.26 11.9975Q143.09 11.9125 142.707 11.853Q142.325 11.7935 141.781 11.7935Q141.424 11.7935 141.024 11.8445Q140.625 11.8955 140.293 12.057Q139.962 12.2185 139.741 12.499Q139.52 12.7795 139.52 13.2385Q139.52 14.0885 140.064 14.42Q140.608 14.7515 141.543 14.7515ZM207.498 14.7515Q208.059 14.7515 208.493 14.726Q208.926 14.7005 209.215 14.6325L209.215 11.9975Q209.045 11.9125 208.663 11.853Q208.28 11.7935 207.736 11.7935Q207.379 11.7935 206.98 11.8445Q206.58 11.8955 206.249 12.057Q205.917 12.2185 205.696 12.499Q205.475 12.7795 205.475 13.2385Q205.475 14.0885 206.019 14.42Q206.563 14.7515 207.498 14.7515ZM245.394 14.7515Q245.955 14.7515 246.388 14.726Q246.822 14.7005 247.111 14.6325L247.111 11.9975Q246.941 11.9125 246.558 11.853Q246.176 11.7935 245.632 11.7935Q245.275 11.7935 244.875 11.8445Q244.476 11.8955 244.144 12.057Q243.813 12.2185 243.592 12.499Q243.371 12.7795 243.371 13.2385Q243.371 14.0885 243.915 14.42Q244.459 14.7515 245.394 14.7515ZM164.792 14.7005Q164.894 14.7175 165.081 14.7345Q165.268 14.7515 165.506 14.76Q165.744 14.7685 166.007 14.777Q166.271 14.7855 166.509 14.7855Q167.002 14.7855 167.452 14.7175Q167.903 14.6495 168.234 14.4795Q168.566 14.3095 168.761 14.029Q168.957 13.7485 168.957 13.3065Q168.957 12.8815 168.778 12.601Q168.6 12.3205 168.294 12.1505Q167.988 11.9805 167.571 11.9125Q167.155 11.8445 166.679 11.8445L164.792 11.8445L164.792 14.7005ZM235.189 14.7345Q235.002 14.7175 234.9 14.7005L234.9 11.8445L236.787 11.8445Q237.263 11.8445 237.68 11.9125Q238.096 11.9805 238.402 12.1505Q238.708 12.3205 238.887 12.601Q239.065 12.8815 239.065 13.3065Q239.065 13.7485 238.87 14.029Q238.674 14.3095 238.343 14.4795Q238.011 14.6495 237.561 14.7175Q237.11 14.7855 236.617 14.7855Q236.379 14.7855 236.116 14.777Q235.852 14.7685 235.614 14.76Q235.376 14.7515 235.189 14.7345Z" />
    </g>
  </g>
</svg>