<?xml version="1.0" encoding="utf-8"?>
<svg width="222px" height="41px" viewBox="0 0 222 41" version="1.1" xmlns:xlink="http://www.w3.org/1999/xlink" xmlns="http://www.w3.org/2000/svg">
  <g id="Group-2">
    <g id="Group" transform="translate(0 0.64676213)">
      <path d="M29.9515 29.3807C32.9455 26.2612 34.7852 22.0283 34.7852 17.3664C34.7852 7.77521 26.9983 0 17.3926 0C7.78694 0 0 7.77521 0 17.3664C0 22.0283 1.83971 26.2612 4.83376 29.3807C5.999 27.5661 7.54789 26.0207 9.36612 24.8586C6.78928 22.8993 5.16045 20.0128 5.16045 16.7939C5.16045 10.8916 10.637 6.10687 17.3926 6.10687C24.1483 6.10687 29.6248 10.8916 29.6248 16.7939C29.6248 20.0128 27.996 22.8993 25.4191 24.8586C27.2374 26.0207 28.7862 27.5661 29.9515 29.3807Z" id="Combined-Shape" fill="#FFFFFF" fill-rule="evenodd" stroke="none" />
      <path d="M6.68947 13.3588C10.384 13.3588 13.3789 10.3683 13.3789 6.67939C13.3789 2.99046 10.384 0 6.68947 0C2.99498 0 0 2.99046 0 6.67939C0 10.3683 2.99498 13.3588 6.68947 13.3588Z" transform="translate(10.703153 10.305341)" id="Oval" fill="#FFFFFF" fill-rule="evenodd" stroke="none" />
      <path d="M10.6181 15.7976C10.6181 15.7976 18.8583 8.40824 21.332 5.67745C19.3309 2.63266 16.063 0.492304 12.2764 0.00342321L11.5737 2.21539L12.4393 6.66433L8.46471 8.10877L9.76925 2.18727L8.98626 2.98825e-05C5.24834 0.474725 2.01347 2.55842 0 5.53383C2.35373 8.09159 10.6181 15.7976 10.6181 15.7976ZM8.1729 9.43335L7.75118 11.3476L10.6181 14.0193L13.3504 11.3476L12.6607 7.80239L8.1729 9.43335Z" transform="translate(6.7745256 24.530285)" id="Combined-Shape" fill="#FFFFFF" fill-rule="evenodd" stroke="none" />
      <path d="M2.25248 0L7.58407 0.722757L7.56544 0.752302C9.95265 1.01775 11.8089 3.0393 11.8089 5.49375C11.8089 8.12869 9.6696 10.2647 7.03068 10.2647C5.32312 10.2647 3.82476 9.37039 2.97982 8.02523L2.97064 8.03979L0 3.57061C0 3.57061 1.01577 2.47604 1.40061 1.866C1.78545 1.25596 2.25248 0 2.25248 0Z" transform="translate(32.53276 24.086397)" id="Combined-Shape" fill="#FFFFFF" fill-rule="evenodd" stroke="none" />
    </g>
    <g id="перехват-клиентов" transform="translate(48.38865 0)">
      <g id="перехват-" fill="#FFFFFF">
        <path d="M54.035 11.7488Q53.5736 12.8756 53.5736 14.378Q53.5736 15.6228 53.9277 16.696Q54.2818 17.7691 55.0223 18.5525Q55.7628 19.3359 56.8896 19.7866Q58.0164 20.2373 59.5402 20.2373Q60.1412 20.2373 60.7422 20.173Q61.3431 20.1086 61.869 20.012Q62.3948 19.9154 62.8241 19.7866Q63.2533 19.6579 63.5109 19.5291L63.0816 16.9321Q62.545 17.1682 61.6973 17.3291Q60.8495 17.4901 59.9695 17.4901Q58.5959 17.4901 57.7803 16.9106Q56.9647 16.3311 56.8574 15.3438L64.1118 15.3438Q64.1333 15.0863 64.1547 14.7536Q64.1762 14.4209 64.1762 14.1419Q64.1762 11.2873 62.7811 9.81715Q61.386 8.34694 58.9822 8.34694Q57.952 8.34694 56.9754 8.73327Q55.9989 9.1196 55.2477 9.8708Q54.4965 10.622 54.035 11.7488ZM75.0443 15.3299Q74.9664 16.0431 74.7769 16.6745Q74.455 17.7477 73.8326 18.5203Q73.2101 19.293 72.2872 19.7222Q71.3643 20.1515 70.1624 20.1515Q69.4971 20.1515 68.9176 20.0227Q68.3381 19.8939 67.8015 19.6579L67.8015 23.9075L64.6035 23.9075L64.6035 9.03375Q65.0328 8.90498 65.5908 8.78693Q66.1489 8.66889 66.7606 8.58303Q67.3723 8.49718 68.0054 8.44352Q68.6386 8.38987 69.2181 8.38987Q70.6131 8.38987 71.7077 8.80839Q72.8023 9.22692 73.5535 9.98885Q74.3047 10.7508 74.7018 11.8454Q74.9567 12.5481 75.048 13.357Q75.1537 12.4749 75.4511 11.7488Q75.9125 10.622 76.6637 9.8708Q77.4149 9.1196 78.3915 8.73327Q79.3681 8.34694 80.3983 8.34694Q82.8021 8.34694 84.1972 9.81715Q85.5923 11.2873 85.5923 14.1419Q85.5923 14.4209 85.5708 14.7536Q85.5493 15.0863 85.5279 15.3438L78.2735 15.3438Q78.3808 16.3311 79.1964 16.9106Q80.0119 17.4901 81.3856 17.4901Q82.2655 17.4901 83.1133 17.3291Q83.9611 17.1682 84.4977 16.9321L84.9269 19.5291Q84.6694 19.6579 84.2401 19.7866Q83.8109 19.9154 83.285 20.012Q82.7592 20.1086 82.1582 20.173Q81.5573 20.2373 80.9563 20.2373Q79.4324 20.2373 78.3056 19.7866Q77.1788 19.3359 76.4384 18.5525Q75.6979 17.7691 75.3438 16.696Q75.1288 16.0445 75.0443 15.3299ZM110.719 8.34694Q112.136 8.34694 113.08 8.66888Q114.025 8.99083 114.594 9.59179Q115.162 10.1927 115.398 11.0513Q115.408 11.0876 115.418 11.1243L115.418 8.64742L125.827 8.64742L125.827 11.2659L122.222 11.2659L122.222 19.9369L119.024 19.9369L119.024 11.2659L115.453 11.2659Q115.634 12.0394 115.634 12.9614L115.634 19.6149Q114.948 19.7652 113.724 19.9691Q112.501 20.173 110.762 20.173Q109.668 20.173 108.777 19.9798Q107.886 19.7866 107.243 19.3466Q106.599 18.9067 106.255 18.1984Q106.137 17.9548 106.06 17.6732Q106.018 17.797 105.967 17.9194Q105.699 18.5632 105.055 19.0569Q104.411 19.5505 103.36 19.851Q102.308 20.1515 100.763 20.1515Q100.162 20.1515 99.4749 20.1086Q98.7881 20.0656 98.1227 19.9905Q97.4574 19.9154 96.8671 19.8188Q96.4029 19.7429 96.0515 19.6735Q96.1246 19.807 96.193 19.9369L92.7633 19.9369Q92.5886 19.6139 92.3314 19.1308Q92.0741 18.6478 91.7525 18.1216Q91.4309 17.5954 91.0808 17.23Q90.7307 16.8647 90.391 16.5662Q90.0667 16.8439 89.7315 17.1802Q89.3963 17.5166 89.0947 18.0201Q88.793 18.5237 88.5021 19.0165Q88.2112 19.5093 87.9851 19.9369L84.7318 19.9369Q85.0015 19.4087 85.4441 18.6732Q85.8868 17.9378 86.4148 17.1561Q86.9428 16.3744 87.5571 15.6368Q88.1713 14.8991 88.7628 14.2526Q87.7101 12.7565 86.7386 11.3764Q85.7671 9.99623 84.8177 8.64742L88.2732 8.64742L90.4933 11.8122L92.7375 8.64742L96.0427 8.64742L95.929 8.80677Q96.3196 8.72785 96.8671 8.65815Q97.4574 8.58303 98.1227 8.51865Q98.7881 8.45426 99.4749 8.42206Q100.162 8.38987 100.763 8.38987Q102.158 8.38987 103.113 8.66888Q104.068 8.9479 104.658 9.39862Q105.248 9.84934 105.506 10.4074Q105.763 10.9654 105.763 11.5234Q105.763 12.2746 105.399 12.8971Q105.034 13.5195 104.476 13.7985Q104.776 13.9273 105.087 14.1634Q105.399 14.3995 105.656 14.7321Q105.887 15.0306 106.041 15.4328Q106.138 15.0814 106.309 14.7858Q106.706 14.099 107.371 13.6912Q108.037 13.2834 108.895 13.101Q109.754 12.9185 110.677 12.9185Q111.299 12.9185 111.782 12.9722Q112.265 13.0258 112.565 13.1117L112.565 12.8112Q112.565 11.9956 112.072 11.502Q111.578 11.0083 110.355 11.0083Q109.539 11.0083 108.745 11.1264Q107.951 11.2444 107.371 11.4591L106.963 8.88351Q107.243 8.79766 107.661 8.70108Q108.08 8.6045 108.573 8.52938Q109.067 8.45426 109.614 8.4006Q110.161 8.34694 110.719 8.34694ZM53.1462 19.9369L53.1462 8.64742L43.4236 8.64742L43.4236 19.9369L46.6215 19.9369L46.6215 11.3088L49.9483 11.3088L49.9483 19.9369L53.1462 19.9369ZM95.8691 19.3479L95.8691 8.89068L92.1244 14.1372Q93.4716 15.6842 94.5172 17.2123Q95.3137 18.3762 95.8691 19.3479ZM102.158 12.8649Q101.664 13.0688 100.87 13.0688L99.0671 13.0688L99.0671 10.9654Q99.3676 10.9225 99.8505 10.8903Q100.333 10.8581 100.634 10.8581Q101.535 10.8581 102.093 11.0942Q102.651 11.3303 102.651 11.9742Q102.651 12.661 102.158 12.8649ZM60.9461 12.3605Q61.0641 12.7468 61.0856 13.1546L56.8574 13.1546Q56.9218 12.7468 57.0613 12.3498Q57.2008 11.9527 57.4583 11.6522Q57.7159 11.3517 58.1022 11.1693Q58.4886 10.9869 59.0251 10.9869Q59.5832 10.9869 59.9588 11.18Q60.3344 11.3732 60.5812 11.6737Q60.828 11.9742 60.9461 12.3605ZM82.3621 12.3605Q82.4802 12.7468 82.5016 13.1546L78.2735 13.1546Q78.3378 12.7468 78.4773 12.3498Q78.6169 11.9527 78.8744 11.6522Q79.132 11.3517 79.5183 11.1693Q79.9046 10.9869 80.4412 10.9869Q80.9992 10.9869 81.3748 11.18Q81.7504 11.3732 81.9973 11.6737Q82.2441 11.9742 82.3621 12.3605ZM71.8365 14.378Q71.8365 12.8971 71.1712 12.0064Q70.5058 11.1156 69.1966 11.1156Q68.7673 11.1156 68.4025 11.1478Q68.0376 11.18 67.8015 11.223L67.8015 16.9965Q68.102 17.1896 68.5849 17.3184Q69.0678 17.4472 69.5615 17.4472Q71.8365 17.4472 71.8365 14.378ZM110.977 17.7047Q111.449 17.7047 111.878 17.6833Q112.308 17.6618 112.565 17.6189L112.565 15.1936Q112.372 15.1507 111.986 15.1077Q111.599 15.0648 111.278 15.0648Q110.827 15.0648 110.43 15.1185Q110.033 15.1721 109.732 15.3224Q109.432 15.4726 109.26 15.7302Q109.088 15.9877 109.088 16.374Q109.088 17.1252 109.593 17.415Q110.097 17.7047 110.977 17.7047ZM99.8719 17.6511Q99.3676 17.6189 99.0671 17.576L99.0671 15.215L100.934 15.215Q101.986 15.215 102.533 15.4833Q103.081 15.7516 103.081 16.4384Q103.081 17.1467 102.48 17.415Q101.879 17.6833 100.806 17.6833Q100.376 17.6833 99.8719 17.6511Z" />
      </g>
      <g id="клиентов" fill="#FFFFFF">
        <path d="M77.5759 36.7488Q77.1145 37.8756 77.1145 39.378Q77.1145 40.6228 77.4686 41.696Q77.8227 42.7691 78.5632 43.5525Q79.3037 44.3359 80.4305 44.7866Q81.5573 45.2373 83.0811 45.2373Q83.6821 45.2373 84.283 45.173Q84.884 45.1086 85.4098 45.012Q85.9357 44.9154 86.3649 44.7866Q86.7942 44.6578 87.0518 44.5291L86.6225 41.9321Q86.0859 42.1682 85.2381 42.3291Q84.3904 42.4901 83.5104 42.4901Q82.1368 42.4901 81.3212 41.9106Q80.5056 41.3311 80.3983 40.3438L87.6527 40.3438Q87.6742 40.0863 87.6956 39.7536Q87.7171 39.4209 87.7171 39.1419Q87.7171 36.2873 86.322 34.8171Q84.9269 33.3469 82.5231 33.3469Q81.4929 33.3469 80.5163 33.7333Q79.5398 34.1196 78.7886 34.8708Q78.0374 35.622 77.5759 36.7488ZM118.618 39.2707Q118.618 40.6014 118.231 41.7067Q117.845 42.812 117.115 43.5954Q116.386 44.3788 115.366 44.8081Q114.347 45.2373 113.08 45.2373Q111.836 45.2373 110.816 44.8081Q109.797 44.3788 109.067 43.5954Q108.337 42.812 107.929 41.7067Q107.522 40.6014 107.522 39.2707Q107.522 37.94 107.94 36.8454Q108.359 35.7508 109.099 34.9781Q109.84 34.2055 110.859 33.7762Q111.878 33.3469 113.08 33.3469Q114.304 33.3469 115.323 33.7762Q116.343 34.2055 117.072 34.9781Q117.802 35.7508 118.21 36.8454Q118.618 37.94 118.618 39.2707ZM122.651 45.1086Q123.338 45.1515 123.939 45.1515Q125.484 45.1515 126.536 44.851Q127.587 44.5505 128.231 44.0569Q128.875 43.5632 129.143 42.9194Q129.412 42.2755 129.412 41.5887Q129.412 40.9877 129.251 40.5263Q129.09 40.0648 128.832 39.7321Q128.575 39.3995 128.263 39.1634Q127.952 38.9273 127.652 38.7985Q128.21 38.5195 128.575 37.8971Q128.94 37.2746 128.94 36.5234Q128.94 35.9654 128.682 35.4074Q128.424 34.8493 127.834 34.3986Q127.244 33.9479 126.289 33.6689Q125.334 33.3899 123.939 33.3899Q123.338 33.3899 122.651 33.4221Q121.964 33.4543 121.299 33.5186Q120.633 33.583 120.043 33.6582Q119.453 33.7333 119.045 33.8191L119.045 44.6364Q119.453 44.7222 120.043 44.8188Q120.633 44.9154 121.299 44.9905Q121.964 45.0656 122.651 45.1086ZM48.64 36.5997Q48.1119 37.1341 47.6518 37.5852L47.6518 33.6474L44.4538 33.6474L44.4538 44.9369L47.6518 44.9369L47.6518 40.3841Q48.129 40.7727 48.6823 41.3127Q49.2356 41.8526 49.7662 42.4696Q50.2967 43.0867 50.7915 43.7214Q51.2863 44.356 51.6737 44.9369L54.1005 44.9369L54.1316 45.13Q55.2906 45.0227 56.1598 44.7115Q57.0291 44.4003 57.6408 43.9281Q58.2525 43.4559 58.6495 42.8657Q59.0466 42.2755 59.3041 41.5887Q59.5188 41.0092 59.6583 40.3438Q59.7978 39.6785 59.8836 38.9809Q59.9695 38.2834 60.0017 37.5858Q60.0339 36.8883 60.0553 36.2659L62.2446 36.2659L62.2446 44.9369L65.4425 44.9369L65.4425 33.6474L56.9647 33.6474L56.9647 34.9352Q56.9647 35.6864 56.954 36.502Q56.9432 37.3176 56.8788 38.101Q56.8145 38.8843 56.675 39.5926Q56.5354 40.3009 56.2994 40.8375Q55.9989 41.4599 55.3979 41.857Q54.797 42.254 53.7024 42.4686L53.7334 42.6614Q53.3308 42.1405 52.9031 41.6286Q52.2046 40.7925 51.4777 40.0596Q50.7508 39.3267 50.1092 38.8307Q50.7451 38.2861 51.4641 37.5778Q52.1831 36.8695 52.8914 36.1505Q53.5996 35.4315 54.2336 34.767Q54.8676 34.1025 55.2925 33.6474L51.4077 33.6474Q51.0513 34.0213 50.6056 34.5197Q50.1599 35.018 49.6641 35.5417Q49.1682 36.0653 48.64 36.5997ZM76.6871 33.6474L76.6871 44.9369L73.4677 44.9369Q73.4677 43.8637 73.4892 42.8013Q73.5106 41.7389 73.5321 40.8375Q73.5535 39.936 73.5857 39.2599Q73.6179 38.5839 73.6179 38.2619Q72.9955 39.1419 72.3731 40.0433Q71.7507 40.9448 71.1819 41.814Q70.6131 42.6833 70.1088 43.4774Q69.6044 44.2715 69.2181 44.9369L66.4064 44.9369L66.4064 33.6474L69.6044 33.6474Q69.6044 34.7206 69.5937 35.6971Q69.5829 36.6737 69.5615 37.4678Q69.54 38.2619 69.5185 38.8522Q69.4971 39.4424 69.4971 39.7643Q70.7848 37.8756 71.8687 36.3732Q72.9526 34.8708 73.9828 33.6474L76.6871 33.6474ZM97.8671 44.9369L94.6691 44.9369L94.6691 40.4726L91.3424 40.4726L91.3424 44.9369L88.1444 44.9369L88.1444 33.6474L91.3424 33.6474L91.3424 37.8541L94.6691 37.8541L94.6691 33.6474L108.167 33.6474L108.167 36.2659L104.562 36.2659L104.562 44.9369L101.364 44.9369L101.364 36.2659L97.8671 36.2659L97.8671 44.9369ZM125.334 37.8649Q124.84 38.0688 124.046 38.0688L122.243 38.0688L122.243 35.9654Q122.544 35.9225 123.026 35.8903Q123.509 35.8581 123.81 35.8581Q124.711 35.8581 125.269 36.0942Q125.827 36.3303 125.827 36.9742Q125.827 37.661 125.334 37.8649ZM84.4869 37.3605Q84.605 37.7468 84.6264 38.1546L80.3983 38.1546Q80.4627 37.7468 80.6022 37.3498Q80.7417 36.9527 80.9992 36.6522Q81.2568 36.3517 81.6431 36.1693Q82.0294 35.9869 82.566 35.9869Q83.1241 35.9869 83.4996 36.18Q83.8753 36.3732 84.1221 36.6737Q84.3689 36.9742 84.4869 37.3605ZM115.355 39.2707Q115.355 37.7897 114.765 36.942Q114.175 36.0942 113.08 36.0942Q111.986 36.0942 111.385 36.942Q110.784 37.7897 110.784 39.2707Q110.784 40.7516 111.385 41.6209Q111.986 42.4901 113.08 42.4901Q114.175 42.4901 114.765 41.6209Q115.355 40.7516 115.355 39.2707ZM123.048 42.6511Q122.544 42.6189 122.243 42.576L122.243 40.215L124.11 40.215Q125.162 40.215 125.709 40.4833Q126.257 40.7516 126.257 41.4384Q126.257 42.1467 125.656 42.415Q125.055 42.6833 123.982 42.6833Q123.552 42.6833 123.048 42.6511Z" />
      </g>
    </g>
    <g id="помогаем-клиентам-выбрать-вас" fill="#FFFFFF" transform="translate(48.70861 20.152308)">
      <path d="M124.981 5.20729Q125.334 4.92224 125.808 4.76831Q126.281 4.61438 126.714 4.61438Q127.991 4.61438 128.647 5.39542Q129.302 6.17647 129.302 7.56753Q129.302 8.16044 129.143 8.70774Q128.983 9.25504 128.647 9.67692Q128.31 10.0988 127.797 10.3496Q127.284 10.6005 126.577 10.6005Q125.768 10.6005 125.232 10.304Q124.696 10.0076 124.382 9.49449Q124.069 8.98139 123.943 8.29726Q123.818 7.61314 123.818 6.84919Q123.818 5.85721 123.961 5.00205Q124.103 4.14689 124.479 3.49697Q124.856 2.84705 125.523 2.41947Q126.19 1.99189 127.239 1.84366Q127.546 1.79805 127.78 1.76955Q128.014 1.74104 128.191 1.71824Q128.367 1.69543 128.516 1.66693Q128.664 1.63842 128.824 1.60422L128.938 2.562Q128.858 2.5848 128.772 2.5962Q128.687 2.6076 128.533 2.63041Q128.379 2.65321 128.122 2.68742Q127.866 2.72163 127.455 2.76723Q126.326 2.89266 125.722 3.45136Q125.118 4.01007 124.981 5.20729ZM12.3518 8.76475Q12.557 8.19464 12.557 7.48771Q12.557 6.79218 12.3518 6.21638Q12.1466 5.64057 11.776 5.23009Q11.4054 4.81962 10.8923 4.59727Q10.3792 4.37493 9.77492 4.37493Q9.1706 4.37493 8.65751 4.59727Q8.14441 4.81962 7.77384 5.23009Q7.40327 5.64057 7.19804 6.21638Q6.9928 6.79218 6.9928 7.48771Q6.9928 8.19464 7.19804 8.76475Q7.40327 9.33486 7.77384 9.74533Q8.14441 10.1558 8.65751 10.3782Q9.1706 10.6005 9.77492 10.6005Q10.3792 10.6005 10.8923 10.3782Q11.4054 10.1558 11.776 9.74533Q12.1466 9.33486 12.3518 8.76475ZM27.0557 8.76475Q27.261 8.19464 27.261 7.48771Q27.261 6.79218 27.0557 6.21638Q26.8505 5.64057 26.4799 5.23009Q26.1094 4.81962 25.5963 4.59727Q25.0832 4.37493 24.4788 4.37493Q23.8745 4.37493 23.3614 4.59727Q22.8483 4.81962 22.4778 5.23009Q22.1072 5.64057 21.902 6.21638Q21.6967 6.79218 21.6967 7.48771Q21.6967 8.19464 21.902 8.76475Q22.1072 9.33486 22.4778 9.74533Q22.8483 10.1558 23.3614 10.3782Q23.8745 10.6005 24.4788 10.6005Q25.0832 10.6005 25.5963 10.3782Q26.1094 10.1558 26.4799 9.74533Q26.8505 9.33486 27.0557 8.76475ZM36.1555 4.54026Q35.7165 4.37493 35.078 4.37493Q34.5193 4.37493 34.0404 4.46045Q33.5615 4.54597 33.3563 4.63718L33.4817 5.51515Q33.6755 5.43533 34.0689 5.36122Q34.4623 5.2871 34.9868 5.2871Q35.3973 5.2871 35.6538 5.40683Q35.9104 5.52655 36.0586 5.72608Q36.2068 5.92562 36.2638 6.18217Q36.3208 6.43872 36.3208 6.70097L36.3208 6.99742Q36.2752 6.98602 36.1612 6.96322Q36.0472 6.94041 35.8933 6.91191Q35.7393 6.8834 35.5683 6.8663Q35.3973 6.84919 35.2376 6.84919Q34.7359 6.84919 34.2799 6.95181Q33.8238 7.05443 33.4817 7.27107Q33.1396 7.48771 32.9401 7.84118Q32.7406 8.19464 32.7406 8.68494Q32.7406 9.19803 32.9116 9.5629Q33.0826 9.92777 33.3905 10.1501Q33.6984 10.3725 34.1202 10.4751Q34.5421 10.5777 35.0438 10.5777Q35.3973 10.5777 35.7564 10.5492Q36.1156 10.5207 36.4235 10.4865C36.6287 10.4637 36.813 10.439 36.9765 10.4124Q37.2216 10.3725 37.3584 10.3496L37.3584 6.64396Q37.3584 6.14226 37.2444 5.72608Q37.1304 5.30991 36.8624 5.00775Q36.5945 4.7056 36.1555 4.54026ZM38.6046 7.49912Q38.6046 6.71237 38.8326 6.12516Q39.0606 5.53795 39.4369 5.15028Q39.8132 4.76261 40.3035 4.56877Q40.7938 4.37493 41.3069 4.37493Q42.5041 4.37493 43.1426 5.12177Q43.7811 5.86861 43.7811 7.3965L43.7811 7.57323Q43.7811 7.68155 43.7697 7.77277L39.7106 7.77277Q39.779 8.69634 40.2465 9.17523Q40.714 9.65412 41.7059 9.65412Q42.2646 9.65412 42.6466 9.5572Q43.0286 9.46028 43.2224 9.36906L43.3706 10.2584Q43.1768 10.361 42.6922 10.4751Q42.2076 10.5891 41.5919 10.5891Q40.8166 10.5891 40.2522 10.3553Q39.6878 10.1216 39.3229 9.71113Q38.958 9.30065 38.7813 8.73625Q38.6046 8.17184 38.6046 7.49912ZM75.028 6.12516Q74.8 6.71237 74.8 7.49912Q74.8 8.17184 74.9767 8.73625Q75.1535 9.30065 75.5183 9.71113Q75.8832 10.1216 76.4476 10.3553Q77.012 10.5891 77.7873 10.5891Q78.4031 10.5891 78.8876 10.4751Q79.3722 10.361 79.5661 10.2584L79.4178 9.36906Q79.224 9.46028 78.842 9.5572Q78.4601 9.65412 77.9014 9.65412Q76.9094 9.65412 76.4419 9.17523Q75.9744 8.69634 75.906 7.77277L79.9651 7.77277Q79.9765 7.68155 79.9765 7.57323L79.9765 7.3965Q79.9765 5.86861 79.338 5.12177Q78.6995 4.37493 77.5023 4.37493Q76.9892 4.37493 76.4989 4.56877Q76.0086 4.76261 75.6323 5.15028Q75.2561 5.53795 75.028 6.12516ZM94.8434 4.37493Q95.4819 4.37493 95.9209 4.54026Q96.3599 4.7056 96.6278 5.00775Q96.8958 5.30991 97.0098 5.72608Q97.1238 6.14226 97.1238 6.64396L97.1238 10.3496Q96.987 10.3725 96.7419 10.4124C96.5784 10.439 96.3941 10.4637 96.1889 10.4865Q95.881 10.5207 95.5218 10.5492Q95.1627 10.5777 94.8092 10.5777Q94.3075 10.5777 93.8856 10.4751Q93.4637 10.3725 93.1559 10.1501Q92.848 9.92777 92.677 9.5629Q92.506 9.19803 92.506 8.68494Q92.506 8.19464 92.7055 7.84118Q92.905 7.48771 93.2471 7.27107Q93.5892 7.05443 94.0453 6.95181Q94.5013 6.84919 95.003 6.84919Q95.1627 6.84919 95.3337 6.8663Q95.5047 6.8834 95.6587 6.91191Q95.8126 6.94041 95.9266 6.96322Q96.0406 6.98602 96.0862 6.99742L96.0862 6.70097Q96.0862 6.43872 96.0292 6.18217Q95.9722 5.92562 95.824 5.72608Q95.6758 5.52655 95.4192 5.40683Q95.1627 5.2871 94.7522 5.2871Q94.2277 5.2871 93.8343 5.36122Q93.4409 5.43533 93.2471 5.51515L93.1217 4.63718Q93.3269 4.54597 93.8058 4.46045Q94.2847 4.37493 94.8434 4.37493ZM111.634 10.5549Q110.961 10.5549 110.391 10.4922Q109.821 10.4295 109.49 10.3496L109.49 4.58017Q109.821 4.50036 110.391 4.43764Q110.961 4.37493 111.634 4.37493Q112.101 4.37493 112.546 4.45475Q112.991 4.53456 113.333 4.7227Q113.675 4.91083 113.886 5.23579Q114.097 5.56075 114.097 6.03964Q114.097 6.47292 113.88 6.78078Q113.664 7.08864 113.299 7.25967Q113.789 7.4307 114.08 7.76707Q114.37 8.10343 114.37 8.70774Q114.37 9.24364 114.159 9.59711Q113.949 9.95057 113.578 10.1672Q113.207 10.3839 112.706 10.4694Q112.204 10.5549 111.634 10.5549ZM139.081 4.37493Q139.719 4.37493 140.158 4.54026Q140.597 4.7056 140.865 5.00775Q141.133 5.30991 141.247 5.72608Q141.361 6.14226 141.361 6.64396L141.361 10.3496Q141.224 10.3725 140.979 10.4124C140.816 10.439 140.631 10.4637 140.426 10.4865Q140.118 10.5207 139.759 10.5492Q139.4 10.5777 139.046 10.5777Q138.545 10.5777 138.123 10.4751Q137.701 10.3725 137.393 10.1501Q137.085 9.92777 136.914 9.5629Q136.743 9.19803 136.743 8.68494Q136.743 8.19464 136.943 7.84118Q137.142 7.48771 137.484 7.27107Q137.826 7.05443 138.282 6.95181Q138.739 6.84919 139.24 6.84919Q139.4 6.84919 139.571 6.8663Q139.742 6.8834 139.896 6.91191Q140.05 6.94041 140.164 6.96322Q140.278 6.98602 140.323 6.99742L140.323 6.70097Q140.323 6.43872 140.266 6.18217Q140.209 5.92562 140.061 5.72608Q139.913 5.52655 139.656 5.40683Q139.4 5.2871 138.989 5.2871Q138.465 5.2871 138.072 5.36122Q137.678 5.43533 137.484 5.51515L137.359 4.63718Q137.564 4.54597 138.043 4.46045Q138.522 4.37493 139.081 4.37493ZM157.414 10.4922Q157.984 10.5549 158.657 10.5549Q159.227 10.5549 159.728 10.4694Q160.23 10.3839 160.601 10.1672Q160.971 9.95057 161.182 9.59711Q161.393 9.24364 161.393 8.70774Q161.393 8.10343 161.102 7.76707Q160.812 7.4307 160.321 7.25967Q160.686 7.08864 160.903 6.78078Q161.119 6.47292 161.119 6.03964Q161.119 5.56075 160.908 5.23579Q160.698 4.91083 160.355 4.7227Q160.013 4.53456 159.569 4.45475Q159.124 4.37493 158.657 4.37493Q157.984 4.37493 157.414 4.43764Q156.844 4.50036 156.513 4.58017L156.513 10.3496Q156.844 10.4295 157.414 10.4922ZM164.498 4.37493Q165.136 4.37493 165.575 4.54026Q166.014 4.7056 166.282 5.00775Q166.55 5.30991 166.664 5.72608Q166.778 6.14226 166.778 6.64396L166.778 10.3496Q166.641 10.3725 166.396 10.4124C166.233 10.439 166.048 10.4637 165.843 10.4865Q165.535 10.5207 165.176 10.5492Q164.817 10.5777 164.464 10.5777Q163.962 10.5777 163.54 10.4751Q163.118 10.3725 162.81 10.1501Q162.502 9.92777 162.331 9.5629Q162.16 9.19803 162.16 8.68494Q162.16 8.19464 162.36 7.84118Q162.559 7.48771 162.901 7.27107Q163.244 7.05443 163.7 6.95181Q164.156 6.84919 164.657 6.84919Q164.817 6.84919 164.988 6.8663Q165.159 6.8834 165.313 6.91191Q165.467 6.94041 165.581 6.96322Q165.695 6.98602 165.741 6.99742L165.741 6.70097Q165.741 6.43872 165.684 6.18217Q165.627 5.92562 165.478 5.72608Q165.33 5.52655 165.074 5.40683Q164.817 5.2871 164.407 5.2871Q163.882 5.2871 163.489 5.36122Q163.095 5.43533 162.901 5.51515L162.776 4.63718Q162.981 4.54597 163.46 4.46045Q163.939 4.37493 164.498 4.37493ZM169.672 10.361Q170.214 10.5891 170.932 10.5891Q171.16 10.5891 171.405 10.5606Q171.65 10.5321 171.867 10.4922C172.011 10.4656 172.14 10.4352 172.254 10.401Q172.426 10.3496 172.517 10.2926L172.369 9.40327Q172.175 9.49449 171.833 9.5743Q171.491 9.65412 171.069 9.65412Q170.544 9.65412 170.179 9.50019Q169.814 9.34626 169.581 9.06121Q169.347 8.77615 169.239 8.37708Q169.13 7.978 169.13 7.49912Q169.13 6.42732 169.604 5.86861Q170.077 5.30991 170.966 5.30991Q171.32 5.30991 171.633 5.37832Q171.947 5.44673 172.186 5.56075L172.426 4.65999Q172.061 4.51176 171.662 4.44335Q171.263 4.37493 170.863 4.37493Q170.214 4.37493 169.683 4.60868Q169.153 4.84242 168.788 5.2586Q168.423 5.67478 168.224 6.24488Q168.024 6.81499 168.024 7.49912Q168.024 8.18324 168.207 8.74765Q168.389 9.31205 168.76 9.72253Q169.13 10.133 169.672 10.361ZM135.674 8.74195Q135.851 8.17184 135.851 7.49912Q135.851 6.78078 135.64 6.20497Q135.429 5.62917 135.041 5.23009Q134.653 4.83102 134.106 4.61438Q133.559 4.39774 132.875 4.39774Q132.133 4.39774 131.569 4.50606Q131.005 4.61438 130.628 4.7056L130.628 12.5617L131.689 12.5617L131.689 10.19Q131.883 10.3154 132.276 10.4523Q132.669 10.5891 133.182 10.5891Q133.821 10.5891 134.317 10.361Q134.813 10.133 135.155 9.72253Q135.497 9.31205 135.674 8.74195ZM4.61786 10.4523L5.67826 10.4523L5.67826 4.52316L0.91217 4.52316L0.91217 10.4523L1.97257 10.4523L1.97257 5.41253L4.61786 5.41253L4.61786 10.4523ZM15.0004 6.08525Q14.8864 7.21406 14.8294 8.33717Q14.7723 9.46028 14.7381 10.4523L13.7233 10.4523Q13.7462 9.75674 13.7918 8.9985Q13.8374 8.24025 13.8944 7.47061Q13.9514 6.70097 14.0198 5.95413Q14.0882 5.20729 14.168 4.52316L15.1372 4.52316Q15.5021 5.11607 15.9924 6.14796Q16.4827 7.17986 17.1212 8.52531Q17.7597 7.17986 18.25 6.14796Q18.7403 5.11607 19.1052 4.52316L20.0857 4.52316Q20.1655 5.20729 20.234 5.95413Q20.3024 6.70097 20.3594 7.47061Q20.4164 8.24025 20.462 8.9985Q20.5076 9.75674 20.5304 10.4523L19.4814 10.4523Q19.4472 9.46028 19.3902 8.33717Q19.3332 7.21406 19.2192 6.08525Q19.0367 6.43872 18.7973 6.93471Q18.5578 7.4307 18.3241 7.9438Q18.0904 8.45689 17.8851 8.92438Q17.6799 9.39187 17.5659 9.66552L16.6765 9.66552Q16.5511 9.38047 16.3401 8.91298Q16.1292 8.44549 15.8955 7.92669Q15.6617 7.4079 15.4223 6.91191Q15.1828 6.41591 15.0004 6.08525ZM32.247 5.41253L29.6359 5.41253L29.6359 10.4523L28.5755 10.4523L28.5755 4.52316L32.247 4.52316L32.247 5.41253ZM46.0877 8.33717Q46.1447 7.21406 46.2587 6.08525Q46.4411 6.41591 46.6806 6.91191Q46.92 7.4079 47.1537 7.92669Q47.3875 8.44549 47.5984 8.91298Q47.8094 9.38047 47.9348 9.66552L48.8242 9.66552Q48.9382 9.39187 49.1434 8.92438Q49.3487 8.45689 49.5824 7.9438Q49.8161 7.4307 50.0556 6.93471Q50.295 6.43872 50.4775 6.08525Q50.5915 7.21406 50.6485 8.33717Q50.7055 9.46028 50.7397 10.4523L51.7887 10.4523Q51.7659 9.75674 51.7203 8.9985Q51.6747 8.24025 51.6177 7.47061Q51.5607 6.70097 51.4923 5.95413Q51.4238 5.20729 51.344 4.52316L50.3634 4.52316Q49.9986 5.11607 49.5083 6.14796Q49.018 7.17986 48.3795 8.52531Q47.741 7.17986 47.2507 6.14796Q46.7604 5.11607 46.3955 4.52316L45.4263 4.52316Q45.3465 5.20729 45.2781 5.95413Q45.2097 6.70097 45.1527 7.47061Q45.0957 8.24025 45.0501 8.9985Q45.0044 9.75674 44.9816 10.4523L45.9964 10.4523Q46.0306 9.46028 46.0877 8.33717ZM58.086 7.22546Q58.4394 7.47631 58.8499 7.85828Q59.2604 8.24025 59.6538 8.68494Q60.0471 9.12962 60.3892 9.5914Q60.7313 10.0532 60.9707 10.4523L59.7165 10.4523Q59.4656 10.0646 59.1293 9.65982Q58.7929 9.25504 58.428 8.87877Q58.0632 8.5025 57.6869 8.18324Q57.3106 7.86398 56.98 7.64734L56.98 10.4523L55.9196 10.4523L55.9196 4.52316L56.98 4.52316L56.98 7.06583Q57.2536 6.80359 57.6071 6.45582Q57.9606 6.10806 58.3197 5.74889Q58.6789 5.38972 58.9867 5.06476Q59.2946 4.7398 59.4884 4.52316L60.7199 4.52316Q60.469 4.79681 60.1327 5.14458Q59.7963 5.49234 59.4371 5.85721Q59.078 6.22208 58.7245 6.58124Q58.371 6.94041 58.086 7.22546ZM63.9101 6.21638Q63.9272 5.7888 63.9272 5.41253L65.7971 5.41253L65.7971 10.4523L66.8575 10.4523L66.8575 4.52316L62.9124 4.52316Q62.9124 5.00205 62.9067 5.53795Q62.901 6.07385 62.8668 6.60405Q62.8326 7.13425 62.7527 7.62454Q62.6729 8.11483 62.5019 8.5025Q62.3081 8.94719 61.9831 9.25504Q61.6581 9.5629 61.0994 9.67692L61.2477 10.5663Q61.738 10.5207 62.1028 10.3553Q62.4677 10.19 62.7413 9.94487Q63.015 9.69973 63.2031 9.38047Q63.3913 9.06121 63.5167 8.69634Q63.6421 8.33147 63.7219 7.91529Q63.8017 7.49912 63.8474 7.07154Q63.893 6.64396 63.9101 6.21638ZM73.4854 10.4523L72.4593 10.4523L72.4593 5.93702Q72.1172 6.37031 71.7067 6.95181Q71.2962 7.53332 70.8858 8.15474Q70.4753 8.77615 70.099 9.38047Q69.7227 9.98478 69.4491 10.4523L68.5027 10.4523L68.5027 4.52316L69.5289 4.52316L69.5289 8.78756Q69.8254 8.29726 70.2016 7.71005Q70.5779 7.12285 70.9827 6.54704Q71.3875 5.97123 71.7922 5.44103Q72.197 4.91083 72.5505 4.52316L73.4854 4.52316L73.4854 10.4523ZM86.1826 10.4523L85.1222 10.4523L85.1222 7.82978L82.3857 7.82978L82.3857 10.4523L81.3253 10.4523L81.3253 4.52316L82.3857 4.52316L82.3857 6.94041L85.1222 6.94041L85.1222 4.52316L86.1826 4.52316L86.1826 10.4523ZM92.0124 5.41253L92.0124 4.52316L87.0981 4.52316L87.0981 5.41253L89.025 5.41253L89.025 10.4523L90.0854 10.4523L90.0854 5.41253L92.0124 5.41253ZM99.6584 8.33717Q99.7154 7.21406 99.8294 6.08525Q100.012 6.41591 100.251 6.91191Q100.491 7.4079 100.725 7.92669Q100.958 8.44549 101.169 8.91298Q101.38 9.38047 101.506 9.66552L102.395 9.66552Q102.509 9.39187 102.714 8.92438Q102.919 8.45689 103.153 7.9438Q103.387 7.4307 103.626 6.93471Q103.866 6.43872 104.048 6.08525Q104.162 7.21406 104.219 8.33717Q104.276 9.46028 104.31 10.4523L105.359 10.4523Q105.337 9.75674 105.291 8.9985Q105.245 8.24025 105.188 7.47061Q105.131 6.70097 105.063 5.95413Q104.995 5.20729 104.915 4.52316L103.934 4.52316Q103.569 5.11607 103.079 6.14796Q102.589 7.17986 101.95 8.52531Q101.312 7.17986 100.821 6.14796Q100.331 5.11607 99.9663 4.52316L98.9971 4.52316Q98.9173 5.20729 98.8488 5.95413Q98.7804 6.70097 98.7234 7.47061Q98.6664 8.24025 98.6208 8.9985Q98.5752 9.75674 98.5524 10.4523L99.5672 10.4523Q99.6014 9.46028 99.6584 8.33717ZM116.62 4.52316L115.56 4.52316L115.56 10.3268C115.902 10.4105 116.255 10.4732 116.62 10.515Q117.167 10.5777 117.703 10.5777Q118.262 10.5777 118.729 10.4694Q119.197 10.361 119.527 10.1216Q119.858 9.88216 120.041 9.50589Q120.223 9.12962 120.223 8.59372Q120.223 8.08062 120.035 7.71005Q119.847 7.33949 119.527 7.10574Q119.208 6.872 118.786 6.76368Q118.364 6.65536 117.897 6.65536Q117.555 6.65536 117.184 6.70097Q116.814 6.74657 116.62 6.79218L116.62 4.52316ZM121.318 10.4523L122.378 10.4523L122.378 4.52316L121.318 4.52316L121.318 10.4523ZM147.122 5.41253L147.122 4.52316L142.208 4.52316L142.208 5.41253L144.135 5.41253L144.135 10.4523L145.195 10.4523L145.195 5.41253L147.122 5.41253ZM148.038 10.3268L148.038 4.52316L149.098 4.52316L149.098 6.79218Q149.189 6.76938 149.343 6.74658Q149.497 6.72377 149.674 6.70097Q149.851 6.67816 150.045 6.66676Q150.238 6.65536 150.41 6.65536Q150.9 6.65536 151.333 6.76368Q151.766 6.872 152.091 7.10574Q152.416 7.33949 152.61 7.71005Q152.804 8.08062 152.804 8.59372Q152.804 9.12962 152.622 9.50589Q152.439 9.88216 152.097 10.1216Q151.755 10.361 151.282 10.4694Q150.809 10.5777 150.227 10.5777Q149.657 10.5777 149.11 10.515C148.745 10.4732 148.388 10.4105 148.038 10.3268ZM111.657 6.95181Q111.965 6.95181 112.221 6.91191Q112.478 6.872 112.666 6.76938Q112.854 6.66676 112.962 6.49573Q113.071 6.3247 113.071 6.06245Q113.071 5.7888 112.934 5.62917Q112.797 5.46954 112.575 5.38402Q112.352 5.29851 112.073 5.27Q111.794 5.24149 111.508 5.24149Q111.246 5.24149 110.978 5.2529Q110.71 5.2643 110.528 5.2757L110.528 6.95181L111.657 6.95181ZM159.244 6.91191Q158.987 6.95181 158.679 6.95181L157.551 6.95181L157.551 5.2757Q157.733 5.2643 158.001 5.2529Q158.269 5.24149 158.531 5.24149Q158.816 5.24149 159.096 5.27Q159.375 5.29851 159.597 5.38402Q159.82 5.46954 159.956 5.62917Q160.093 5.7888 160.093 6.06245Q160.093 6.3247 159.985 6.49573Q159.877 6.66676 159.688 6.76938Q159.5 6.872 159.244 6.91191ZM42.6751 6.91761Q42.6865 6.19927 42.316 5.73749Q41.9454 5.2757 41.2955 5.2757Q40.9306 5.2757 40.6512 5.41823Q40.3719 5.56075 40.1781 5.7888Q39.9842 6.01684 39.8759 6.31329Q39.7676 6.60975 39.7334 6.91761L42.6751 6.91761ZM78.5114 5.73749Q78.8819 6.19927 78.8705 6.91761L75.9288 6.91761Q75.963 6.60975 76.0713 6.31329Q76.1796 6.01684 76.3735 5.7888Q76.5673 5.56075 76.8467 5.41823Q77.126 5.2757 77.4909 5.2757Q78.1408 5.2757 78.5114 5.73749ZM11.0006 5.89712Q11.451 6.48433 11.451 7.48771Q11.451 8.4911 11.0006 9.07831Q10.5503 9.66552 9.77492 9.66552Q8.99957 9.66552 8.54919 9.07831Q8.0988 8.4911 8.0988 7.48771Q8.0988 6.48433 8.54919 5.89712Q8.99957 5.30991 9.77492 5.30991Q10.5503 5.30991 11.0006 5.89712ZM25.7046 5.89712Q26.155 6.48433 26.155 7.48771Q26.155 8.4911 25.7046 9.07831Q25.2542 9.66552 24.4788 9.66552Q23.7035 9.66552 23.2531 9.07831Q22.8027 8.4911 22.8027 7.48771Q22.8027 6.48433 23.2531 5.89712Q23.7035 5.30991 24.4788 5.30991Q25.2542 5.30991 25.7046 5.89712ZM134.231 5.90282Q134.745 6.46152 134.745 7.49912Q134.745 7.9552 134.653 8.34857Q134.562 8.74195 134.357 9.0327Q134.152 9.32346 133.827 9.48879Q133.502 9.65412 133.046 9.65412Q132.612 9.65412 132.247 9.50589Q131.883 9.35766 131.689 9.19803L131.689 5.45814Q131.848 5.41253 132.116 5.37832Q132.384 5.34411 132.863 5.34411Q133.718 5.34411 134.231 5.90282ZM124.913 7.02023Q124.913 7.55613 124.987 8.03502Q125.061 8.5139 125.249 8.87877Q125.437 9.24364 125.756 9.45458Q126.076 9.66552 126.577 9.66552Q127.011 9.66552 127.318 9.50019Q127.626 9.33486 127.82 9.0498Q128.014 8.76475 128.105 8.38278Q128.196 8.00081 128.196 7.56753Q128.196 7.17986 128.122 6.81499Q128.048 6.45012 127.854 6.16507Q127.66 5.88001 127.336 5.70898Q127.011 5.53795 126.52 5.53795Q126.041 5.53795 125.602 5.74319Q125.163 5.94843 124.924 6.24488Q124.913 6.37031 124.913 6.59835L124.913 7.02023ZM117.139 7.53902Q117.43 7.52192 117.737 7.52192Q118.011 7.52192 118.262 7.58463Q118.513 7.64734 118.712 7.77847Q118.912 7.90959 119.032 8.11483Q119.151 8.32007 119.151 8.60512Q119.151 9.18663 118.775 9.44888Q118.399 9.71113 117.703 9.71113Q117.578 9.71113 117.418 9.70543Q117.258 9.69973 117.105 9.69402Q116.951 9.68832 116.819 9.67692Q116.688 9.66552 116.62 9.65412L116.62 7.61314Q116.848 7.55613 117.139 7.53902ZM150.284 9.71113Q150.957 9.71113 151.344 9.44888Q151.732 9.18663 151.732 8.60512Q151.732 8.32007 151.618 8.11483Q151.504 7.90959 151.305 7.77847Q151.105 7.64734 150.843 7.58463Q150.581 7.52192 150.284 7.52192Q149.976 7.52192 149.651 7.53902Q149.326 7.55613 149.098 7.61314L149.098 9.65412Q149.167 9.66552 149.304 9.67692Q149.44 9.68832 149.606 9.69402Q149.771 9.69973 149.948 9.70543Q150.124 9.71113 150.284 9.71113ZM35.8363 9.67122Q35.5455 9.68832 35.1692 9.68832Q34.5421 9.68832 34.1772 9.46598Q33.8124 9.24364 33.8124 8.67353Q33.8124 8.36568 33.9606 8.17754Q34.1088 7.98941 34.3312 7.88109Q34.5535 7.77277 34.8215 7.73856Q35.0894 7.70435 35.3289 7.70435Q35.6937 7.70435 35.9503 7.74426Q36.2068 7.78417 36.3208 7.84118L36.3208 9.60851Q36.127 9.65412 35.8363 9.67122ZM94.9346 9.68832Q95.3109 9.68832 95.6016 9.67122Q95.8924 9.65412 96.0862 9.60851L96.0862 7.84118Q95.9722 7.78417 95.7157 7.74426Q95.4591 7.70435 95.0943 7.70435Q94.8548 7.70435 94.5869 7.73856Q94.3189 7.77277 94.0966 7.88109Q93.8742 7.98941 93.726 8.17754Q93.5778 8.36568 93.5778 8.67353Q93.5778 9.24364 93.9426 9.46598Q94.3075 9.68832 94.9346 9.68832ZM139.172 9.68832Q139.548 9.68832 139.839 9.67122Q140.13 9.65412 140.323 9.60851L140.323 7.84118Q140.209 7.78417 139.953 7.74426Q139.696 7.70435 139.331 7.70435Q139.092 7.70435 138.824 7.73856Q138.556 7.77277 138.334 7.88109Q138.111 7.98941 137.963 8.17754Q137.815 8.36568 137.815 8.67353Q137.815 9.24364 138.18 9.46598Q138.545 9.68832 139.172 9.68832ZM164.589 9.68832Q164.965 9.68832 165.256 9.67122Q165.547 9.65412 165.741 9.60851L165.741 7.84118Q165.627 7.78417 165.37 7.74426Q165.113 7.70435 164.749 7.70435Q164.509 7.70435 164.241 7.73856Q163.973 7.77277 163.751 7.88109Q163.529 7.98941 163.38 8.17754Q163.232 8.36568 163.232 8.67353Q163.232 9.24364 163.597 9.46598Q163.962 9.68832 164.589 9.68832ZM110.528 9.65412Q110.596 9.66552 110.722 9.67692Q110.847 9.68832 111.007 9.69402Q111.166 9.69973 111.343 9.70543Q111.52 9.71113 111.68 9.71113Q112.01 9.71113 112.312 9.66552Q112.615 9.61991 112.837 9.50589Q113.059 9.39187 113.19 9.20373Q113.321 9.0156 113.321 8.71914Q113.321 8.43409 113.202 8.24595Q113.082 8.05782 112.877 7.9438Q112.672 7.82978 112.392 7.78417Q112.113 7.73856 111.794 7.73856L110.528 7.73856L110.528 9.65412ZM157.744 9.67692Q157.619 9.66552 157.551 9.65412L157.551 7.73856L158.816 7.73856Q159.135 7.73856 159.415 7.78417Q159.694 7.82978 159.899 7.9438Q160.105 8.05782 160.224 8.24595Q160.344 8.43409 160.344 8.71914Q160.344 9.0156 160.213 9.20373Q160.082 9.39187 159.859 9.50589Q159.637 9.61991 159.335 9.66552Q159.033 9.71113 158.702 9.71113Q158.543 9.71113 158.366 9.70543Q158.189 9.69973 158.029 9.69402Q157.87 9.68832 157.744 9.67692Z" />
    </g>
  </g>
</svg>